<svg xmlns="http://www.w3.org/2000/svg" viewBox="0 0 512 512"><path d="M475.357 102.902H373.961V67.514c0-33.128-26.856-59.984-59.984-59.984H198.024c-33.128 0-59.984 26.856-59.984 59.984v35.388H36.643C16.406 102.902 0 119.308 0 139.545V427.67c0 20.237 16.406 36.643 36.643 36.643h11.043v30.118c0 5.545 4.495 10.039 10.039 10.039h60.235c5.545 0 10.039-4.495 10.039-10.039v-30.118h256v30.118c0 5.545 4.495 10.039 10.039 10.039h60.235c5.545 0 10.039-4.495 10.039-10.039v-30.118h11.043c20.237 0 36.643-16.406 36.643-36.643V139.545c.002-20.237-16.404-36.643-36.641-36.643zM77.804 122.98h20.078v321.255H77.804V122.98zM57.725 444.235H36.643c-9.149 0-16.565-7.416-16.565-16.565V139.545c0-9.149 7.416-16.565 16.565-16.565h21.082v321.255zm50.197 40.157H67.765v-20.078h40.157v20.078zM414.118 122.98h20.078v321.255h-20.078V122.98zm-256-55.466c0-22.039 17.867-39.906 39.906-39.906h115.953c22.039 0 39.906 17.867 39.906 39.906v35.388H158.118V67.514zm60.679 146.445c.88-6.996 6.851-12.261 13.927-12.261 7.745 0 14.046 6.301 14.046 14.045 0 12.227-20.759 30.57-37.955 41.719-17.199-11.151-37.955-29.492-37.955-41.719 0-7.744 6.301-14.045 14.046-14.045 7.112 0 13.104 5.314 13.94 12.36.766 6.445 7.526 10.859 14.301 7.934 3.217-1.389 5.212-4.556 5.65-8.033zm175.242 230.276H117.961V122.98h80.816v61.593a34.011 34.011 0 00-13.869-2.953c-18.816 0-34.124 15.308-34.124 34.123 0 30.209 47.528 58.996 52.947 62.18a10.056 10.056 0 0010.172 0c5.419-3.183 52.947-31.971 52.947-62.18 0-18.815-15.308-34.123-34.124-34.123-4.92 0-9.616 1.057-13.869 2.953V122.98h175.184v321.255zm50.196 40.157h-40.157v-20.078h40.157v20.078zm47.687-56.721c0 9.149-7.416 16.565-16.565 16.565h-21.082V122.98h21.082c9.149 0 16.565 7.416 16.565 16.565v288.126z"/><path d="M197.773 403.576h-3.012c-5.544 0-10.039 4.496-10.039 10.039s4.496 10.039 10.039 10.039h3.012c5.544 0 10.039-4.496 10.039-10.039s-4.496-10.039-10.039-10.039zm24.596 10.04c0 5.544 4.496 10.039 10.039 10.039h119.969c5.544 0 10.039-4.496 10.039-10.039s-4.496-10.039-10.039-10.039H232.408c-5.544-.001-10.039 4.495-10.039 10.039z"/></svg>