<svg viewBox="0 0 116.379 194.42" xmlns="http://www.w3.org/2000/svg"><path d="M97.353 34.754h19.026V.02H81.807c-2.883-.12-38.04-.793-47.153 33.956-.133.365-3.043 8.626-3.043 27.931L0 62.002v36.43l31.652-.094v96.082H80v-96h32V61.896H80V50.404c0-7.14 3.01-15.65 17.353-15.65zM104 69.896V90.42H72v96H39.652V90.314L8 90.408v-20.43l31.734-.093-.082-4.069c-.414-20.447 2.5-29.049 2.631-29.459 7.863-29.93 37.89-28.422 39.18-28.344l26.916.008v18.733H97.353C78.66 26.754 72 38.97 72 50.404v19.492h32z"/></svg>