<svg width="23" height="23" fill="none" xmlns="http://www.w3.org/2000/svg"><path d="M21.928 3.634L18.955.664a2.257 2.257 0 00-3.201 0l-3.2 3.2a2.256 2.256 0 00-.663 1.599c0 .605.237 1.175.664 1.602l2.339 2.339a10.993 10.993 0 01-2.247 3.24 11.035 11.035 0 01-3.24 2.256l-2.34-2.34a2.256 2.256 0 00-3.201 0L.664 15.758A2.258 2.258 0 000 17.359c0 .606.237 1.175.664 1.602l2.967 2.967A3.669 3.669 0 006.22 23c.204 0 .399-.017.592-.05 3.762-.62 7.494-2.621 10.506-5.63 3.009-3.006 5.007-6.736 5.635-10.51a3.674 3.674 0 00-1.024-3.176z" fill="#F90"/></svg>