<svg width="20" height="19" viewBox="0 0 20 19" fill="none" xmlns="http://www.w3.org/2000/svg">
<path d="M14.5862 0H5.41381C2.42858 0 0 2.30715 0 5.14312V13.857C0 16.6928 2.42858 19 5.41381 19H14.5863C17.5714 19 20 16.6928 20 13.857V5.14312C20 2.30715 17.5714 0 14.5862 0V0ZM9.99998 14.6951C6.98454 14.6951 4.53139 12.3646 4.53139 9.49998C4.53139 6.63532 6.98454 4.30482 9.99998 4.30482C13.0154 4.30482 15.4686 6.63532 15.4686 9.49998C15.4686 12.3646 13.0154 14.6951 9.99998 14.6951ZM15.5993 5.53001C14.7082 5.53001 13.9834 4.84146 13.9834 3.9949C13.9834 3.14835 14.7082 2.45965 15.5993 2.45965C16.4904 2.45965 17.2154 3.14835 17.2154 3.9949C17.2154 4.84146 16.4904 5.53001 15.5993 5.53001Z" fill="black"/>
<path d="M10 7.125C8.62156 7.125 7.5 8.1904 7.5 9.5C7.5 10.8095 8.62156 11.875 10 11.875C11.3785 11.875 12.5 10.8095 12.5 9.5C12.5 8.1904 11.3785 7.125 10 7.125Z" fill="black"/>
</svg>
