<svg width="191" height="152" fill="none" xmlns="http://www.w3.org/2000/svg"><path fill-rule="evenodd" clip-rule="evenodd" d="M55.853 144.391a76.002 76.002 0 01-4.579-134.366A76 76 0 1193 151.895V152H0v-2.5h92.436a73.578 73.578 0 0055.45-117.619 73.578 73.578 0 00-128.55 20.433 73.58 73.58 0 0037.572 89.899l-1.055 2.178zM121 152h70v-2.5h-70v2.5zM78.367 79.4c-6.812 0-12.333 5.522-12.333 12.334 0 6.811 5.521 12.333 12.333 12.333S90.7 98.545 90.7 91.734c-.007-6.81-5.524-12.327-12.333-12.334zm0 22.2c-5.45 0-9.867-4.417-9.867-9.866 0-5.45 4.418-9.867 9.867-9.867a9.866 9.866 0 019.867 9.867c-.006 5.446-4.42 9.86-9.867 9.866zm2.466-12.333c0-.504-.96-1.233-2.466-1.233-1.506 0-2.467.73-2.467 1.233 0 .503.96 1.233 2.467 1.233 2.766 0 4.933 1.624 4.933 3.7 0 1.755-1.552 3.175-3.7 3.577v1.356h-2.466v-1.356c-2.148-.405-3.7-1.824-3.7-3.577H75.9c0 .504.96 1.233 2.467 1.233 1.506 0 2.466-.73 2.466-1.233 0-.503-.96-1.233-2.466-1.233-2.767 0-4.934-1.624-4.934-3.7 0-1.755 1.553-3.175 3.7-3.577v-1.356H79.6v1.356c2.148.405 3.7 1.824 3.7 3.577h-2.466zm32.067 17.267H61.1v-29.6h19.733a3.7 3.7 0 003.7-3.7V42.4H98.1v14.8h14.8v17.267h2.467v-19.01L99.844 39.933h-15.31V38.7a3.7 3.7 0 00-3.7-3.7H53.7a3.7 3.7 0 00-3.7 3.7v34.534a3.7 3.7 0 003.7 3.7h4.933V109h56.734V91.734H112.9v14.8zm-12.333-62.39l10.589 10.59h-10.589v-10.59zm-48.1 29.09V38.7c0-.68.552-1.233 1.233-1.233h27.133c.681 0 1.234.552 1.234 1.233v34.534c0 .68-.553 1.233-1.234 1.233H53.7a1.233 1.233 0 01-1.233-1.233zm39.466-7.4h-2.467V68.3h2.467v-2.466zm2.467 0h14.8V68.3H94.4v-2.466zM91.933 60.9h-2.467v2.467h2.467V60.9zm2.467 0h14.8v2.467H94.4V60.9zm-2.467 9.867h-2.467v2.467h2.467v-2.467zm2.467 0h14.8v2.467H94.4v-2.467zM91.933 75.7h-2.467v2.467h2.467V75.7zm2.467 0h14.8v2.467H94.4V75.7zm-40.7-37h27.134v8.633H53.7V38.7zm2.467 6.167h22.2v-3.7h-22.2v3.7zm3.7 3.7H57.4a2.467 2.467 0 00-2.466 2.466V53.5a2.467 2.467 0 002.466 2.467h2.467a2.467 2.467 0 002.467-2.467v-2.467a2.467 2.467 0 00-2.467-2.466zM57.4 53.5v-2.467h2.467V53.5H57.4zm8.633-4.933H68.5a2.467 2.467 0 012.466 2.466V53.5a2.467 2.467 0 01-2.466 2.467h-2.467a2.467 2.467 0 01-2.467-2.467v-2.467a2.467 2.467 0 012.467-2.466zm0 2.466V53.5H68.5v-2.467h-2.467zm11.1-2.466h-2.466a2.467 2.467 0 00-2.467 2.466V53.5a2.467 2.467 0 002.467 2.467h2.467A2.467 2.467 0 0079.6 53.5v-2.467a2.467 2.467 0 00-2.466-2.466zM74.668 53.5v-2.467h2.467V53.5h-2.467zM57.4 57.2h2.467a2.467 2.467 0 012.467 2.467v2.466a2.467 2.467 0 01-2.467 2.467H57.4a2.467 2.467 0 01-2.466-2.467v-2.466A2.467 2.467 0 0157.4 57.2zm0 2.467v2.466h2.467v-2.466H57.4zM68.5 57.2h-2.467a2.467 2.467 0 00-2.467 2.467v2.466a2.467 2.467 0 002.467 2.467H68.5a2.467 2.467 0 002.466-2.467v-2.466A2.467 2.467 0 0068.5 57.2zm-2.467 4.933v-2.466H68.5v2.466h-2.467zm8.634-4.933h2.467a2.467 2.467 0 012.466 2.467v2.466a2.467 2.467 0 01-2.466 2.467h-2.467a2.467 2.467 0 01-2.467-2.467v-2.466a2.467 2.467 0 012.467-2.467zm0 2.467v2.466h2.467v-2.466h-2.467zm-14.8 6.166H57.4a2.467 2.467 0 00-2.466 2.467v2.467a2.467 2.467 0 002.466 2.467h2.467a2.467 2.467 0 002.467-2.467V68.3a2.467 2.467 0 00-2.467-2.466zM57.4 70.767V68.3h2.467v2.467H57.4zm8.633-4.933H68.5a2.467 2.467 0 012.466 2.466v2.467a2.467 2.467 0 01-2.466 2.467h-2.467a2.467 2.467 0 01-2.467-2.467V68.3a2.467 2.467 0 012.467-2.466zm0 2.466v2.467H68.5V68.3h-2.467zm11.1-2.466h-2.466A2.467 2.467 0 0072.2 68.3v2.467a2.467 2.467 0 002.467 2.467h2.467a2.467 2.467 0 002.466-2.467V68.3a2.467 2.467 0 00-2.466-2.466zm-2.466 4.933V68.3h2.467v2.467h-2.467zm42.981 3.587a3.788 3.788 0 015.232 0 3.7 3.7 0 010 5.232l-21.142 21.143a1.236 1.236 0 01-.356.247l-6.466 2.978a1.233 1.233 0 01-1.635-1.636l2.977-6.465a1.26 1.26 0 01.247-.357l21.143-21.142zm-20.731 25.962l3.232-1.489 15.765-15.764-1.744-1.744-15.764 15.766-1.489 3.231zm19-20.745l1.744 1.743.864-.863-1.744-1.744-.864.864zm4.351-.863l.872-.872a1.234 1.234 0 000-1.744 1.261 1.261 0 00-1.743 0l-.873.872 1.744 1.744z" fill="#441D06"/></svg>