<svg width="191" height="156" fill="none" xmlns="http://www.w3.org/2000/svg"><path d="M0 152.75h93m28 0h70m-135.147-6.359a76.002 76.002 0 01-4.579-134.366 76 76 0 1140.99 141.905l-.104-2.417a73.583 73.583 0 0070.181-67.588 73.577 73.577 0 00-58.422-77.977 73.58 73.58 0 00-47.01 138.265l-1.056 2.178z" stroke="#441D06" stroke-width="2.5"/><g clip-path="url(#clip0_325_2660)" fill="#441D06"><path d="M67.538 63.438h-7.651v-7.652h7.651v7.651zm-5.1-2.551h2.55v-2.55h-2.55v2.55zm14.028 2.551h-7.651v-7.652h7.651v7.651zm-5.1-2.551h2.55v-2.55h-2.55v2.55zm-3.828 11.478h-7.651v-7.652h7.651v7.652zm-5.1-2.55h2.55v-2.552h-2.55v2.551zm14.028 2.55h-7.651v-7.652h7.651v7.652zm-5.1-2.55h2.55v-2.552h-2.55v2.551zm14.028-6.377h-7.652v-7.652h7.652v7.651zm-5.101-2.551h2.55v-2.55h-2.55v2.55zm5.101 11.478h-7.652v-7.652h7.652v7.652zm-5.101-2.55h2.55v-2.552h-2.55v2.551z"/><path d="M122.378 71.09v-7.653h-5.101V53.236h-2.907L109.625 39l-4.746 14.235h-2.906v10.203h-5.101v7.651h-3.826v12.753h-2.55V50.685h-3.827v-5.102h-5.1v-5.101H63.713v5.101h-5.101v5.102h-3.826v33.157h-5.102V117h76.519V71.09h-3.826zm-65.04-17.855h3.825v-5.101h5.102v-5.101h12.752v5.1h5.102v5.102h3.826v30.607H57.337V53.235zm51.011 61.215H52.236V86.393h56.113v28.057zm15.304 0H110.9V83.842H95.596V73.64h3.826v-7.652h5.102V55.786h2.194l2.907-8.72 2.906 8.72h2.195v10.202h5.101v7.652h3.826v40.81z"/><path d="M59.887 81.291h7.651V73.64h-7.651v7.651zm2.55-5.1h2.55v2.55h-2.55v-2.55zm6.377 5.1h7.652V73.64h-7.651v7.651zm2.551-5.1h2.55v2.55h-2.55v-2.55zm6.377 5.1h7.652V73.64h-7.652v7.651zm2.55-5.1h2.551v2.55h-2.55v-2.55zM59.886 88.943v1.276a3.826 3.826 0 01-3.826 3.826h-1.275v12.753h1.276a3.826 3.826 0 013.825 3.825v1.276h40.81v-1.276a3.826 3.826 0 013.826-3.825h1.275V94.045h-1.275a3.826 3.826 0 01-3.826-3.826v-1.276h-40.81zm43.361 7.525v7.907a6.391 6.391 0 00-4.974 4.973H62.31a6.391 6.391 0 00-4.973-4.973v-7.907a6.394 6.394 0 004.973-4.974h35.964a6.393 6.393 0 004.974 4.974z"/><path d="M80.293 94.045a6.376 6.376 0 106.376 6.376 6.384 6.384 0 00-6.376-6.376zm0 10.202a3.826 3.826 0 110-7.652 3.826 3.826 0 010 7.652zm8.926-5.101h5.101v2.551h-5.101v-2.551zm-22.955 0h5.1v2.551h-5.1v-2.551zm42.086-33.158h2.55v15.304h-2.55V65.988zm5.099 5.102H116v40.809h-2.551v-40.81zm5.102 5.1h2.55v35.71h-2.55V76.19zm-15.303-5.1h2.551v10.202h-2.551V71.089zm-5.101 5.1h2.55v5.102h-2.55V76.19z"/></g><defs><clipPath id="clip0_325_2660"><path fill="#fff" transform="translate(49 39)" d="M0 0h78v78H0z"/></clipPath></defs></svg>