<svg width="64" height="65" fill="none" xmlns="http://www.w3.org/2000/svg"><path d="M42.079 53.955a.958.958 0 001.176-.67 6.345 6.345 0 00.013-3.298 6.307 6.307 0 00-2.946-3.863 6.305 6.305 0 00-4.814-.648 6.305 6.305 0 00-3.863 2.946 6.303 6.303 0 00-.649 4.814 6.358 6.358 0 006.137 4.723c.536 0 1.081-.068 1.623-.212a6.288 6.288 0 002.528-1.333.958.958 0 10-1.253-1.448 4.437 4.437 0 01-7.183-2.22 4.403 4.403 0 01.452-3.362 4.404 4.404 0 012.698-2.057 4.402 4.402 0 013.362.453 4.401 4.401 0 012.056 2.697c.2.756.198 1.553-.007 2.302a.957.957 0 00.67 1.176zM18.8 53.348a6.304 6.304 0 004.814.649 6.302 6.302 0 003.863-2.946 6.304 6.304 0 00.648-4.814 6.309 6.309 0 00-2.945-3.863 6.305 6.305 0 00-4.814-.649 6.305 6.305 0 00-3.863 2.946 6.305 6.305 0 00-.65 4.815 6.305 6.305 0 002.947 3.862zm-.642-7.715a4.404 4.404 0 012.698-2.056 4.405 4.405 0 013.361.453 4.403 4.403 0 012.057 2.697 4.402 4.402 0 01-.453 3.361 4.402 4.402 0 01-2.697 2.057 4.402 4.402 0 01-3.362-.452 4.402 4.402 0 01-2.057-2.698 4.403 4.403 0 01.453-3.362zm.36-7.729a6.304 6.304 0 00.649-4.815 6.353 6.353 0 00-7.76-4.51 6.354 6.354 0 00-4.512 7.759 6.307 6.307 0 002.946 3.863 6.308 6.308 0 004.814.649 6.306 6.306 0 003.863-2.946zm-1.655-.963a4.403 4.403 0 01-2.698 2.057 4.404 4.404 0 01-3.361-.452 4.403 4.403 0 01-2.057-2.698 4.437 4.437 0 014.283-5.567 4.44 4.44 0 014.286 3.298 4.406 4.406 0 01-.453 3.362zm3.857-22.903a6.303 6.303 0 00-4.814-.649 6.304 6.304 0 00-3.863 2.946 6.306 6.306 0 00-.648 4.814 6.305 6.305 0 002.945 3.863 6.31 6.31 0 004.814.649 6.307 6.307 0 003.863-2.946 6.304 6.304 0 00.649-4.814 6.306 6.306 0 00-2.946-3.863zm.642 7.715a4.403 4.403 0 01-2.698 2.057 4.402 4.402 0 01-3.361-.453 4.403 4.403 0 01-2.057-2.698 4.401 4.401 0 01.453-3.361 4.405 4.405 0 012.697-2.058 4.406 4.406 0 013.362.453 4.402 4.402 0 012.057 2.698 4.403 4.403 0 01-.453 3.362z" fill="#029439"/><path d="M63.925 19.812c.693-8.522-9.043-18.599-9.458-19.024a.958.958 0 00-1.642.665c-.012 2.809-2.104 5.395-6.221 9.477-2.603 2.581-3.83 6.34-3.2 9.807.468 2.582 1.921 4.669 4.02 5.815l.024.339-.278.073c-2.82.705-5.645.815-8.169.317-3.63-.716-6.194-2.645-6.86-5.159-.902-3.41 1.72-7.425 6.525-9.992a5.26 5.26 0 002.76-4.207 5.49 5.49 0 00-4.748-5.893c-3.284-.436-8.227-.683-13.12.612a29.86 29.86 0 00-8.431 3.696.957.957 0 101.03 1.615 27.939 27.939 0 017.89-3.46c4.591-1.215 9.266-.978 12.38-.565a3.577 3.577 0 013.09 3.84 3.353 3.353 0 01-.535 1.561 3.35 3.35 0 01-1.218 1.113c-2.668 1.424-4.796 3.29-6.15 5.395-1.446 2.243-1.903 4.587-1.323 6.776.87 3.287 3.91 5.673 8.34 6.547 1.159.229 2.371.343 3.615.343a22.28 22.28 0 005.338-.67l.457 6.578c-.042.01-.084.02-.127.032a5.377 5.377 0 00-3.816 6.565 5.341 5.341 0 004.678 3.973l.743 10.684a29.123 29.123 0 01-9.772 4.675c-7.693 2.047-15.706.948-22.563-3.096-6.856-4.041-11.696-10.523-13.63-18.25a29.587 29.587 0 01.762-16.901c1.858-5.37 5.15-10.035 9.521-13.49a.958.958 0 00-1.187-1.502c-4.658 3.682-8.166 8.65-10.144 14.365a31.5 31.5 0 00-.809 17.993c2.06 8.228 7.213 15.13 14.514 19.435 4.902 2.89 10.357 4.367 15.893 4.367 2.71 0 5.442-.354 8.136-1.07a31.053 31.053 0 009.434-4.293l.238 3.42c.105 1.52 1.73 2.673 3.78 2.682h.022c.904 0 1.773-.231 2.447-.651.8-.496 1.273-1.206 1.334-1.998l.97-12.428c3.278-5.053 5.041-10.87 5.097-16.84a8.415 8.415 0 00-3.244-6.617c2.176-1.74 3.39-3.977 3.607-6.654zm-18.636.584c-.519-2.857.502-5.963 2.664-8.106 3.542-3.513 5.71-6.058 6.475-8.684 2.602 3.033 8.067 10.164 7.589 16.051-.178 2.187-1.15 3.947-2.966 5.372l-10.495-.044c-1.726-.847-2.883-2.468-3.267-4.59zm4.08 6.508l8.967.037-.757 9.71-7.534-.033-.676-9.714zm-3.42 14.615a3.46 3.46 0 012.228-4.156l.463 6.664a3.436 3.436 0 01-2.691-2.508zm9.637 20.684c-.013.164-.175.358-.435.52-.37.23-.894.362-1.437.362H53.7c-1.109-.005-1.852-.535-1.877-.899l-1.645-23.652 7.252.03-1.844 23.639zm6.054-29.431c.006.102.008.199.007.291a29.404 29.404 0 01-2.827 12.301l1.284-16.46a6.512 6.512 0 011.536 3.868z" fill="#029439"/></svg>