<svg width="62" height="62" fill="none" xmlns="http://www.w3.org/2000/svg"><g filter="url(#filter0_d_208:234)" fill="#029439"><path d="M52.92 9.082C47.063 3.226 39.28 0 31 0 22.72 0 14.936 3.225 9.08 9.08 3.226 14.938 0 22.722 0 31c0 8.28 3.225 16.063 9.08 21.918C14.937 58.774 22.72 62 31 62c8.28 0 16.064-3.225 21.92-9.08C58.774 47.062 62 39.278 62 31c0-8.28-3.225-16.063-9.08-21.918zm-1.37 42.466c-5.49 5.49-12.788 8.514-20.55 8.514-7.763 0-15.06-3.024-20.55-8.514C4.96 46.06 1.937 38.762 1.937 31c0-7.762 3.024-15.06 8.514-20.549C15.939 4.961 23.236 1.938 31 1.938c7.762 0 15.06 3.024 20.55 8.513 5.49 5.49 8.513 12.787 8.513 20.549 0 7.762-3.024 15.06-8.514 20.548z"/><path d="M30.031 15.5H22.28v17.438h-3.874v1.937l3.875-.001v3.876h-3.875v1.937h3.875V46.5h1.937v-5.813h6.781V38.75h-6.781v-3.877l5.724-.002c.052.005.38.032.894.032 1.695 0 5.42-.298 8.044-2.697 1.841-1.68 2.775-4.042 2.775-7.018s-.934-5.338-2.775-7.019c-3.422-3.128-8.714-2.686-8.849-2.668zm7.551 15.27c-2.785 2.55-7.415 2.177-7.55 2.168h-5.814V17.437l5.9-.003c.046-.005 4.656-.39 7.456 2.165 1.423 1.3 2.144 3.18 2.144 5.589 0 2.404-.718 4.282-2.136 5.582z"/></g><defs><filter id="filter0_d_208:234" x="-4" y=".001" width="70" height="69.998" filterUnits="userSpaceOnUse" color-interpolation-filters="sRGB"><feFlood flood-opacity="0" result="BackgroundImageFix"/><feColorMatrix in="SourceAlpha" values="0 0 0 0 0 0 0 0 0 0 0 0 0 0 0 0 0 0 127 0" result="hardAlpha"/><feOffset dy="4"/><feGaussianBlur stdDeviation="2"/><feComposite in2="hardAlpha" operator="out"/><feColorMatrix values="0 0 0 0 0 0 0 0 0 0 0 0 0 0 0 0 0 0 0.25 0"/><feBlend in2="BackgroundImageFix" result="effect1_dropShadow_208:234"/><feBlend in="SourceGraphic" in2="effect1_dropShadow_208:234" result="shape"/></filter></defs></svg>