<svg width="64" height="40" fill="none" xmlns="http://www.w3.org/2000/svg"><path d="M59.52 16.96l-1.658-6.548a.993.993 0 00.793-.968V8.39c0-2.293-1.888-4.157-4.208-4.157h-7.55V2.054c0-1.128-.928-2.045-2.07-2.045H6.347c-1.143 0-2.072.917-2.072 2.045v17.947c0 .547.45.99 1.003.99A.996.996 0 006.28 20V2.054c0-.036.03-.066.066-.066h38.48c.037 0 .067.03.067.066v17.947c0 .547.449.99 1.002.99a.996.996 0 001.003-.99V18.88h11.826a3.275 3.275 0 013.114 2.244h-3.116a.996.996 0 00-1.002.99v2.111c0 1.71 1.408 3.101 3.14 3.101h1.136v4.355h-2.62a6.351 6.351 0 00-5.998-4.223 6.35 6.35 0 00-5.998 4.223h-.483v-7.456a.996.996 0 00-1.002-.99.996.996 0 00-1.002.99v7.456h-20.79a6.351 6.351 0 00-5.999-4.223 6.35 6.35 0 00-5.997 4.223h-5.76a.066.066 0 01-.067-.066v-2.178h4.342a.996.996 0 001.002-.99.996.996 0 00-1.002-.99h-9.62a.996.996 0 00-1.002.99c0 .547.449.99 1.002.99h3.274v2.178c0 1.128.929 2.045 2.07 2.045h5.414l-.002.066c0 3.456 2.847 6.268 6.346 6.268 3.5 0 6.347-2.812 6.347-6.268l-.002-.066h22.584l-.002.066c0 3.456 2.847 6.268 6.347 6.268 3.499 0 6.346-2.812 6.346-6.268l-.002-.066h3.276A.996.996 0 0064 32.67V22.112c0-2.606-1.947-4.772-4.48-5.152zM46.898 6.21h7.549c1.215 0 2.204.977 2.204 2.178v.065h-9.753V6.211zm0 10.689v-6.466h8.904L57.44 16.9H46.898zM18.104 38.014c-2.394 0-4.342-1.924-4.342-4.289 0-2.365 1.948-4.289 4.342-4.289 2.395 0 4.343 1.924 4.343 4.29 0 2.364-1.948 4.288-4.343 4.288zm35.274 0c-2.395 0-4.343-1.924-4.343-4.289 0-2.365 1.948-4.289 4.343-4.289 2.394 0 4.342 1.924 4.342 4.29 0 2.364-1.948 4.288-4.342 4.288zm8.618-12.668H60.86a1.13 1.13 0 01-1.136-1.122v-1.122h2.272v2.244z" fill="#FAE026"/></svg>