<svg width="48" height="24" viewBox="0 0 48 24" fill="#000" xmlns="http://www.w3.org/2000/svg" color="#000">
<path fill-rule="evenodd" clip-rule="evenodd" 
	d="M46.937  7.83798C46.8512 7.58042 47.0338 7.29324 47.2826 7.22435C47.5536 7.14906 47.805 7.31537 47.8916 7.5711C48.1851 8.44854 47.8586 9.46375 47.2015 10.086C46.48 10.7696 45.3897 10.9275 44.4693 10.6053C44.0007 10.4414 43.5786 10.1665 43.241 9.79951C43.1865 9.74046 43.135 9.67964 43.0855 9.61724C42.8009 9.6363 42.5139 9.60842 42.2388 9.53173C42.0465 9.47806 41.8601 9.40069 41.6836 9.30261C41.664 10.1274 41.5523 10.9383 41.3201 11.7333C41.2531 11.963 41.191 12.1942 41.1289 12.4254V12.4256L41.1288 12.4258C41.0524 12.7106 40.9761 12.9954 40.8902 13.2773C40.7328 13.7952 40.4589 14.2603 40.1857 14.7233C40.0873 14.8898 39.9887 15.0561 39.8902 15.2224C39.6655 15.6014 39.4409 15.9805 39.2188 16.3611C39.196 16.4004 39.198 16.4627 39.2057 16.5111C39.256 16.8212 39.4012 17.0921 39.5469 17.3639L39.5677 17.4025C39.6578 17.5711 39.7451 17.746 39.8013 17.9282C39.8769 18.1719 39.7962 18.3974 39.6535 18.5997C39.6215 18.6446 39.6056 18.6811 39.6211 18.7412C39.6544 18.8701 39.5878 18.9778 39.5211 19.0802C39.378 19.3001 39.2406 19.5218 39.1724 19.7801C39.0962 20.0678 39.0879 20.3588 39.1214 20.6525C39.1898 21.2455 39.3958 21.7972 39.6234 22.3428C39.6908 22.5042 39.7311 22.6733 39.7082 22.8514C39.69 22.9911 39.6063 23.0495 39.4719 23.0103C39.4325 22.9988 39.3944 22.9823 39.3556 22.9654C39.3383 22.9579 39.3207 22.9503 39.3029 22.9431C39.1877 23.272 38.9123 23.4054 38.6105 23.4902C38.1556 23.6182 37.6917 23.6383 37.2252 23.5602C37.0351 23.5287 37.0209 23.4932 37.1166 23.3273L37.1497 23.2699V23.2697C37.2596 23.079 37.3696 22.888 37.4743 22.6943C37.5265 22.5975 37.5447 22.4943 37.538 22.378C37.5235 22.1264 37.5216 21.8742 37.5195 21.6219V21.6217C37.5193 21.5949 37.5189 21.5682 37.5188 21.5414C37.5186 21.5186 37.5184 21.4958 37.5181 21.4731C37.5172 21.3798 37.5188 21.2864 37.5202 21.1931V21.1929V21.1927C37.523 21.0283 37.5256 20.8637 37.5147 20.7001C37.4865 20.2846 37.4572 19.8654 37.2687 19.4832C37.2411 19.4274 37.197 19.3801 37.1529 19.3326C37.1335 19.3117 37.1141 19.2907 37.096 19.2692C37.0676 19.2349 37.0385 19.2013 37.0094 19.1675C36.9456 19.0935 36.8817 19.0194 36.8243 18.9406C36.7869 18.8893 36.7555 18.8334 36.7243 18.7776C36.6975 18.73 36.6707 18.6823 36.6402 18.6375C36.5342 18.4811 36.2877 18.3751 36.103 18.3958C36.0956 18.4459 36.0894 18.4964 36.0832 18.5467V18.5469C36.0691 18.6637 36.0548 18.7801 36.0249 18.8923C35.9795 19.0621 35.9101 19.2262 35.8411 19.3888L35.8357 19.4016C35.771 19.5536 35.6458 19.6409 35.4906 19.6852C35.4483 19.6973 35.406 19.7088 35.3635 19.7202C35.2687 19.746 35.1738 19.7716 35.0812 19.8038C35.0075 19.8295 34.9298 19.8644 34.8739 19.9172C34.3545 20.4066 33.9081 20.9517 33.6323 21.6221C33.4771 21.9991 33.3786 22.3908 33.3402 22.7975C33.337 22.832 33.3333 22.8665 33.3296 22.9012H33.3294C33.3165 23.0212 33.3037 23.1415 33.3109 23.2605C33.3257 23.4976 33.0739 23.5741 32.9248 23.4939C32.8879 23.4742 32.8542 23.4487 32.8193 23.4226C32.8026 23.41 32.7856 23.3972 32.7678 23.3847C32.7659 23.3858 32.756 23.3892 32.7537 23.3954C32.6434 23.69 32.4098 23.8278 32.1232 23.8927C31.8024 23.9655 31.4788 23.9444 31.1571 23.9028C30.9927 23.8815 30.8293 23.8546 30.6611 23.8271C30.5854 23.8146 30.5089 23.802 30.431 23.7897C30.4541 23.7565 30.4774 23.7247 30.4999 23.6935H30.5001C30.5502 23.6247 30.5978 23.5595 30.6369 23.4893C30.7508 23.2854 30.8571 23.0767 30.9612 22.8671C30.9732 22.8431 30.974 22.8137 30.9749 22.7839C30.9755 22.7657 30.976 22.7476 30.979 22.7303C31.0368 22.4102 31.1814 22.1241 31.3351 21.8445C31.6294 21.3092 31.9314 20.7778 32.2334 20.2468L32.3246 20.0864C32.439 19.885 32.4905 19.6663 32.5036 19.4386C32.5265 19.0384 32.4709 18.6443 32.4154 18.2498C32.411 18.2182 32.4066 18.1867 32.4022 18.155L32.3958 18.1099C32.351 17.7865 32.3181 17.461 32.2851 17.1358V17.1358L32.277 17.0561C32.2713 16.9987 32.2502 16.9657 32.2054 16.9369C31.9774 16.7908 31.7223 16.7181 31.4624 16.6614C30.8928 16.5374 30.3169 16.5093 29.7354 16.5399C28.9464 16.5809 28.177 16.7275 27.4159 16.9323C27.0206 17.0383 26.617 17.0938 26.2095 17.1284C25.7101 17.1705 25.2102 17.1698 24.7109 17.1393C24.2976 17.1137 23.8852 17.0723 23.4735 17.028C23.1629 16.9945 22.8529 16.9555 22.543 16.9166L22.5426 16.9165C22.388 16.8971 22.2332 16.8776 22.0782 16.8588C21.9777 16.8467 21.8774 16.8341 21.7769 16.8215L21.7767 16.8215C21.5209 16.7894 21.2649 16.7574 21.0083 16.7325C20.5215 16.6858 20.0331 16.6606 19.5446 16.7132C19.4649 16.722 19.3859 16.738 19.3069 16.754C19.2597 16.7635 19.2124 16.7731 19.165 16.7811C19.0922 16.7935 19.0428 16.8385 18.9915 16.8852L18.9802 16.8955C18.6115 17.2291 18.2203 17.5299 17.7645 17.7359C17.6327 17.7958 17.5323 17.8925 17.4616 18.018C17.2858 18.3303 17.0314 18.5591 16.7288 18.7399C16.6086 18.8119 16.4905 18.8873 16.3736 18.9646C16.172 19.0985 16.0824 19.287 16.1057 19.531C16.1137 19.6151 16.1625 19.6656 16.2238 19.7102C16.2576 19.7346 16.2924 19.7577 16.3271 19.781C16.4048 19.8329 16.4824 19.8848 16.5486 19.9486C16.6027 20.0007 16.6445 20.0654 16.6864 20.1302C16.7087 20.1648 16.7311 20.1993 16.7553 20.232C16.7762 20.2606 16.8035 20.2921 16.8345 20.3033C16.8888 20.3232 16.9443 20.3403 16.9998 20.3574C17.0673 20.3782 17.1348 20.399 17.2004 20.4246C17.3825 20.4958 17.5272 20.6157 17.61 20.7986C17.6612 20.9117 17.6272 20.991 17.5097 21.0315C17.4605 21.0486 17.4097 21.0612 17.3588 21.0736C17.322 21.0829 17.2851 21.0919 17.2488 21.1028C17.2246 21.1099 17.2017 21.1216 17.1801 21.1325C17.1702 21.1376 17.1605 21.1426 17.1512 21.1467C17.1814 21.1742 17.2125 21.1999 17.2432 21.2251H17.2432C17.3081 21.2784 17.3711 21.3303 17.4188 21.394C17.69 21.7536 17.7741 22.1526 17.6198 22.5863C17.5982 22.6466 17.5556 22.7007 17.5144 22.7529L17.5044 22.7657C17.501 22.7702 17.4976 22.7744 17.4943 22.7787C17.4822 22.7943 17.4391 22.8032 17.4206 22.7942C17.1513 22.6585 16.883 22.5211 16.6167 22.3799C16.5741 22.3572 16.5352 22.3275 16.4963 22.2976L16.4963 22.2975C16.4762 22.2822 16.4562 22.2667 16.4356 22.2523C16.4311 22.2491 16.4266 22.2457 16.422 22.2422C16.4064 22.2303 16.3903 22.218 16.3733 22.2159C15.9006 22.1559 15.5429 21.9167 15.2715 21.5252C15.2011 21.424 15.0985 21.3419 14.9995 21.2654C14.7847 21.0999 14.6817 20.8704 14.6107 20.619C14.5989 20.5774 14.5875 20.5357 14.5762 20.4939C14.5457 20.3815 14.5151 20.269 14.476 20.1598C14.4097 19.9746 14.2801 19.8569 14.0778 19.8368C14.07 19.8359 14.0622 19.837 14.0533 19.8382H14.0533H14.0532H14.0531C14.0498 19.8388 14.0462 19.8393 14.0425 19.8397C14.0368 19.8713 14.0316 19.9031 14.0263 19.9348C14.015 20.0032 14.0038 20.0713 13.9886 20.1387C13.9317 20.3899 13.8091 20.6128 13.6789 20.8294C13.4402 21.2258 13.3214 21.6617 13.2355 22.1111C13.1793 22.4061 13.1197 22.7003 13.0538 22.9933C13.0204 23.1423 12.9733 23.2887 12.9255 23.434C12.9118 23.4752 12.8871 23.5133 12.8626 23.5508L12.8625 23.551C12.8552 23.5622 12.8479 23.5734 12.841 23.5846C12.7706 23.6976 12.6609 23.7431 12.5431 23.7021C12.3804 23.6454 12.2526 23.6843 12.1014 23.7574C11.5948 24.0025 11.0606 24.0683 10.5105 23.9254C10.45 23.9095 10.393 23.8802 10.3326 23.8489H10.3326C10.3033 23.8338 10.2732 23.8182 10.2415 23.8036C10.4718 23.5622 10.6327 23.3015 10.7727 23.0239C10.7861 22.9974 10.7992 22.9709 10.8124 22.9442H10.8124C10.8451 22.8783 10.8777 22.8123 10.9135 22.7488C10.9771 22.6363 11.0549 22.5199 11.1548 22.4418C11.4218 22.2331 11.5736 21.9543 11.6699 21.6415C11.7904 21.2496 11.8978 20.8535 12.0049 20.4578C12.0135 20.426 12.006 20.3901 11.9985 20.3538C11.9946 20.3351 11.9907 20.3165 11.989 20.2983C11.9824 20.2285 11.9751 20.1586 11.9678 20.0887L11.9678 20.0886C11.9501 19.9193 11.9324 19.7501 11.9251 19.5805C11.919 19.4382 11.9205 19.2958 11.922 19.1534C11.9232 19.0352 11.9244 18.917 11.9214 18.799C11.9126 18.4473 11.8618 18.1051 11.6554 17.8061C11.5572 17.6632 11.4959 17.6304 11.3376 17.6762C11.0576 17.757 10.8169 17.6588 10.5782 17.5289C10.5421 17.5092 10.506 17.4892 10.4699 17.4693L10.4699 17.4693C10.3093 17.3805 10.1481 17.2915 9.97939 17.223C9.75281 17.131 9.51858 17.146 9.29399 17.257C8.85769 17.4724 8.39582 17.6046 7.91579 17.67C7.57008 17.7171 7.2223 17.7352 6.87224 17.7175C6.15854 17.6819 5.46944 17.5304 4.7942 17.2987C4.4249 17.1722 4.04387 17.1857 3.66342 17.2508L3.63285 17.2561H3.63283C3.4185 17.2932 3.204 17.3303 2.98513 17.3091C2.67374 17.2794 2.41592 17.1374 2.20313 16.9121C2.12367 16.828 2.13613 16.7369 2.22499 16.6606C2.26343 16.6274 2.30303 16.5959 2.34284 16.5643L2.34289 16.5643C2.3634 16.5479 2.38397 16.5316 2.40444 16.515C2.32556 16.3447 2.18927 16.2415 2.04521 16.1434C1.95536 16.0819 1.8641 16.0558 1.75404 16.0619C1.28985 16.0876 1.04711 15.7995 1.00809 15.3718C0.994998 15.2287 0.998718 15.0842 1.00244 14.9396C1.00456 14.8572 1.00668 14.7748 1.00569 14.6926C1.00503 14.6223 0.995626 14.55 0.976732 14.4829C0.950633 14.3899 0.922054 14.2975 0.893474 14.2052L0.89347 14.2052C0.856097 14.0844 0.818721 13.9637 0.786882 13.8414C0.732345 13.632 0.754952 13.5152 1.02995 13.5553C1.06125 13.5598 1.09252 13.5646 1.12379 13.5694C1.21156 13.5827 1.29931 13.5961 1.38746 13.604C1.48712 13.6134 1.57227 13.5713 1.63085 13.4905C1.71773 13.3703 1.83383 13.3169 1.97756 13.3241C2.03613 13.3272 2.06608 13.3035 2.07417 13.249C2.10759 13.0227 2.2395 12.9021 2.46335 12.8836C2.59602 12.8724 2.68249 12.787 2.76029 12.6947C2.94851 12.4718 2.98084 12.2019 2.97309 11.9229C2.96402 11.6024 2.89498 11.2922 2.82595 10.9821V10.9821C2.80511 10.8884 2.78427 10.7948 2.76509 10.7009C2.71756 10.4688 2.67581 10.2349 2.64455 10C2.63621 9.93669 2.64215 9.87167 2.64811 9.80652C2.65153 9.76903 2.65495 9.7315 2.65569 9.6942C2.65634 9.66259 2.65065 9.62664 2.63513 9.60019C2.55648 9.46558 2.42084 9.439 2.28474 9.41235L2.26988 9.40943C1.94199 9.34462 1.63902 9.22273 1.39331 8.98655C1.30817 8.90469 1.22533 8.81717 1.15833 8.72042C0.942573 8.40977 0.720793 8.1067 0.453469 7.83683C0.282844 7.6647 0.147531 7.46037 0.0606502 7.22959C0.0307001 7.15048 0.00710289 7.06563 0.00107983 6.98175C-0.0117914 6.8073 0.0912607 6.70614 0.264278 6.70788C0.278531 6.70812 0.292783 6.70934 0.306844 6.71057C0.314028 6.71119 0.321164 6.71181 0.328223 6.71229C0.328223 6.67571 0.327629 6.63932 0.327038 6.60308C0.325683 6.51999 0.324343 6.43779 0.330203 6.35622C0.336639 6.26929 0.352068 6.18003 0.381357 6.09825C0.448354 5.91188 0.632427 5.82637 0.80718 5.91771C0.930253 5.98246 1.03962 6.0772 1.14653 6.16979L1.16699 6.18751C1.20387 6.21939 1.2346 6.25839 1.26537 6.29747C1.29299 6.33252 1.32064 6.36764 1.3528 6.39766C1.42178 6.4618 1.49686 6.52803 1.58102 6.56671C2.0042 6.76047 2.45328 6.87112 2.90535 6.97128C2.98183 6.98824 3.02358 6.94924 3.06829 6.90472C3.12207 6.85105 3.17537 6.79686 3.22863 6.74269L3.22865 6.74268C3.33943 6.63004 3.45017 6.51745 3.56516 6.40947C3.97317 6.02628 4.40913 5.67803 4.86326 5.35183C5.7465 4.71714 6.67998 4.16758 7.6539 3.68829C7.93556 3.54968 8.22065 3.4183 8.50572 3.28694C8.74845 3.1751 8.99114 3.06326 9.2317 2.94695C9.47293 2.83033 9.71101 2.70719 9.94906 2.58404L9.94908 2.58402L9.94917 2.58399C10.1061 2.50283 10.263 2.42167 10.4207 2.34239C11.3663 1.86718 12.3207 1.41104 13.3013 1.01288C13.9611 0.744997 14.6307 0.505067 15.3211 0.32853C15.8018 0.205654 16.2875 0.109315 16.7824 0.0685505C16.9652 0.0535254 17.1482 0.0427608 17.3312 0.0319924C17.4249 0.0264834 17.5185 0.0209735 17.6122 0.0148917C17.6378 0.0130795 17.6633 0.00918565 17.6889 0.00528317V0.00528209C17.7009 0.00345197 17.7129 0.00162001 17.7249 0H18.303C18.3201 0.00161121 18.3374 0.00349917 18.3547 0.00538964V0.00539019V0.00539066C18.3917 0.0094542 18.4291 0.0135291 18.4663 0.0148917C18.69 0.0230269 18.9139 0.0319328 19.1378 0.0408386C19.6992 0.0631709 20.2604 0.0855016 20.822 0.0956719C21.3359 0.105 21.85 0.103912 22.3644 0.102822C22.6526 0.102212 22.9409 0.101601 23.2292 0.102826C23.369 0.10346 23.509 0.104004 23.6488 0.104547C24.317 0.107146 24.9852 0.109743 25.6533 0.122127C26.2519 0.133025 26.8506 0.15815 27.4485 0.188681C27.8348 0.208459 28.2206 0.235369 28.6063 0.262285C28.7902 0.275111 28.974 0.287938 29.158 0.299995C29.3428 0.31213 29.5277 0.323839 29.7127 0.335547L29.7129 0.335556C30.0567 0.357314 30.4003 0.379073 30.7438 0.403572C31.7041 0.471789 32.64 0.661553 33.5514 0.977189C34.5565 1.32544 35.498 1.80438 36.3946 2.3746C36.6472 2.53556 36.8969 2.70175 37.1464 2.86791V2.86795C37.4368 3.0613 37.727 3.25464 38.0225 3.43972C38.3608 3.6516 38.7041 3.85547 39.0474 4.05935L39.0476 4.05942C39.2992 4.20886 39.5508 4.35832 39.8006 4.51092C39.9062 4.57569 40.0055 4.65122 40.1047 4.7268V4.72682L40.1049 4.72685C40.1612 4.76969 40.2174 4.81252 40.2749 4.85343C40.2983 4.87007 40.3334 4.87988 40.3618 4.87787C40.4355 4.87231 40.509 4.86443 40.5827 4.85656C40.7111 4.84283 40.8392 4.82911 40.9676 4.82763C41.6672 4.81981 42.2277 5.30957 42.3074 6.00815C42.3673 6.53251 42.0579 7.00156 41.5396 7.14349C41.453 7.16719 41.4352 7.19981 41.4436 7.28467C41.4666 7.51677 41.5191 7.73741 41.6147 7.94314C41.6178 7.94789 41.6212 7.95277 41.6245 7.95766L41.6302 7.96586C41.6349 7.97137 41.6469 7.9865 41.6609 8.00396V8.00403C41.6813 8.02954 41.7055 8.05994 41.7168 8.07242C41.7601 8.12134 41.8065 8.1671 41.8545 8.2116C41.8664 8.22294 41.8961 8.24771 41.9213 8.26863L41.9215 8.26877C41.9366 8.28154 41.9502 8.29286 41.9571 8.2988C41.9856 8.31917 42.0145 8.33882 42.0438 8.3582C42.13 8.41493 42.2205 8.46376 42.3139 8.50686C42.3788 8.53206 42.4451 8.55411 42.5121 8.57276C42.5061 8.55686 42.5003 8.54088 42.4946 8.52492C42.3474 8.10504 42.2723 7.63292 42.3044 7.18792C42.339 6.70356 42.4874 6.22902 42.8215 5.86822C43.1796 5.48129 43.7301 5.35707 44.2287 5.48911C44.4824 5.55633 44.7031 5.69409 44.9015 5.86282C45.1092 6.03935 45.2374 6.27329 45.3407 6.52136C45.4384 6.75622 45.468 7.03084 45.4549 7.283C45.4391 7.58783 45.359 7.86003 45.2418 8.13873C45.0536 8.58648 44.6908 8.95644 44.2911 9.2185C44.2458 9.24837 44.1991 9.27623 44.1516 9.30302C44.1731 9.32199 44.1954 9.34063 44.2176 9.35902C44.2317 9.36917 44.2454 9.37932 44.2597 9.38954C44.3808 9.4764 44.5111 9.54968 44.6462 9.61183C44.8158 9.67873 44.9914 9.72723 45.1712 9.7571C45.3396 9.77439 45.5082 9.77507 45.6766 9.75775C45.8213 9.73297 45.9627 9.69454 46.0997 9.64195C46.1993 9.59544 46.2945 9.54154 46.3859 9.47905C46.3947 9.4729 46.4084 9.46275 46.4208 9.45359L46.4283 9.44721V9.44714C46.4354 9.44102 46.4426 9.43482 46.4499 9.42881C46.4966 9.38846 46.541 9.34504 46.5839 9.30053C46.6184 9.26492 46.6509 9.22723 46.6824 9.18888C46.6861 9.18412 46.6895 9.17948 46.6926 9.17535L46.693 9.17482C46.6948 9.17239 46.6964 9.17015 46.6979 9.16817C46.7157 9.14279 46.7328 9.11692 46.7498 9.0908C46.8043 9.0067 46.8517 8.91775 46.8935 8.82641C46.9412 8.70012 46.9772 8.5705 47.0001 8.4374C47.0109 8.32268 47.0112 8.20762 47.0012 8.09256C46.986 8.00604 46.9649 7.9215 46.937 7.83798ZM43.8999 8.28133C43.9416 8.24705 43.9813 8.21078 44.0203 8.17342C44.0621 8.13373 44.101 8.09132 44.1393 8.04813C44.1499 8.03624 44.1603 8.02401 44.1703 8.01178C44.1807 7.99821 44.1925 7.98257 44.1994 7.97343C44.265 7.88008 44.3209 7.78026 44.3687 7.67676C44.409 7.5681 44.4397 7.45713 44.4602 7.34307C44.4688 7.24632 44.4699 7.14924 44.4621 7.05213C44.448 6.97652 44.4284 6.90248 44.4025 6.82984C44.3791 6.78134 44.3526 6.73484 44.3228 6.68966C44.3006 6.66355 44.277 6.63843 44.2523 6.6143C44.2363 6.59798 44.219 6.58276 44.2015 6.5678C44.1929 6.56172 44.1841 6.55556 44.1753 6.54982C44.1351 6.52303 44.0929 6.49956 44.0495 6.4782C43.9982 6.45988 43.9464 6.44532 43.8932 6.43409C43.8528 6.43135 43.8124 6.43135 43.772 6.43343C43.7401 6.44017 43.7084 6.44899 43.6772 6.45923C43.6438 6.47652 43.6114 6.49515 43.5802 6.5162C43.5543 6.53892 43.5303 6.56371 43.5067 6.58916C43.5016 6.59457 43.4952 6.60207 43.4889 6.60989C43.4774 6.62719 43.4665 6.64449 43.4555 6.6618C43.431 6.70115 43.4099 6.74225 43.39 6.78435C43.3489 6.89599 43.3196 7.01105 43.2997 7.12851C43.2819 7.31153 43.2859 7.49448 43.3059 7.67743C43.3441 7.92517 43.4099 8.16717 43.5016 8.40037C43.5158 8.43157 43.5301 8.46277 43.5453 8.49372C43.6303 8.45304 43.7124 8.40753 43.7918 8.35662C43.8196 8.33898 43.8466 8.32001 43.8736 8.30095L43.8812 8.29528C43.8866 8.29116 43.8932 8.28625 43.8999 8.28133ZM26.3083 2.18738C26.6096 1.87828 27.0964 1.87828 27.3977 2.18738L29.5713 4.4274C29.8719 4.73759 29.8719 5.24002 29.5713 5.55021L27.2773 7.91443C27.0809 8.11651 26.8265 8.24806 26.5518 8.28956L26.2545 8.33187C26.1831 8.34239 26.1113 8.34771 26.0392 8.34771C25.6312 8.347 25.24 8.18095 24.9498 7.88541L24.6781 7.60534L22.4698 9.87985L25.7169 13.2232C26.1207 12.9901 26.6249 13.0554 26.9601 13.3843L27.0114 13.4371L26.6473 13.8122L25.9246 14.5573L25.5605 14.9324L25.5094 14.8795C25.3171 14.6812 25.2092 14.4123 25.2095 14.1319C25.2084 13.9438 25.2582 13.759 25.353 13.5983L22.1071 10.2534L19.4055 13.0366C19.6442 13.4512 19.5798 13.9797 19.2491 14.3205L18.657 14.9334L17.2063 13.4382L17.7984 12.8254C18.129 12.4845 18.6419 12.4182 19.0442 12.6642L21.7448 9.87985L19.8054 7.88033C19.701 7.93052 19.5873 7.95663 19.4721 7.95676C19.2681 7.95724 19.0724 7.87356 18.9287 7.72422L18.083 6.85247C18.0674 6.83469 18.0542 6.81473 18.044 6.79332L17.8546 6.7654C17.6901 6.74145 17.5374 6.66369 17.419 6.54349L14.9866 4.03645C15.4112 4.10767 16.0657 4.70785 16.6009 5.19866L16.6039 5.20146C17.3704 5.90682 17.9779 6.46417 18.3853 6.04419C18.793 5.6241 18.252 4.99807 17.5677 4.20817L17.5545 4.19286C17.0802 3.64368 16.5033 2.97575 16.4373 2.54132L18.8698 5.04824C18.9864 5.17026 19.062 5.3277 19.0851 5.49736L19.1123 5.69229C19.1331 5.70306 19.1523 5.71649 19.1697 5.73245L19.2286 5.79315L20.0155 6.6042C20.246 6.84097 20.3059 7.20205 20.1647 7.50426L22.1071 9.50607L24.3142 7.23023L24.0423 6.95028C23.7022 6.59645 23.5418 6.09898 23.6091 5.60559L23.6502 5.29917C23.6906 5.01704 23.8182 4.75572 24.0143 4.55426L26.3083 2.18738ZM19.2907 7.35128C19.3914 7.45407 19.5538 7.45407 19.6544 7.35128C19.7535 7.24826 19.7533 7.08221 19.6543 6.97932L19.1094 6.4193L18.7484 6.79018L19.2907 7.35128ZM24.6781 5.7351C24.7257 5.78614 24.7915 5.8148 24.8601 5.81432C24.9279 5.81419 24.9926 5.78566 25.0395 5.7351L27.0338 3.68251C27.1338 3.57864 27.1338 3.41128 27.0338 3.3074C26.9338 3.20496 26.7722 3.20496 26.6722 3.3074L24.6781 5.36266C24.5787 5.46568 24.5787 5.63208 24.6781 5.7351ZM25.5842 6.562C25.6524 6.562 25.7176 6.53334 25.7649 6.48268L27.7592 4.4274C27.8321 4.36296 27.8641 4.2615 27.8417 4.165C27.8191 4.0685 27.7459 3.99316 27.6523 3.96994C27.5587 3.94673 27.4603 3.97961 27.3977 4.05496L25.4034 6.11021C25.3042 6.21325 25.3042 6.37963 25.4034 6.48268C25.4507 6.53334 25.5159 6.562 25.5842 6.562ZM26.4902 7.23023L28.4845 5.1751C28.5839 5.07206 28.5839 4.90555 28.4845 4.80253C28.3838 4.69962 28.2213 4.69962 28.1206 4.80253L26.1288 6.85779C26.0295 6.96081 26.0295 7.12721 26.1288 7.23023C26.2288 7.33267 26.3903 7.33267 26.4902 7.23023ZM12.7608 11.7333V10.5728H9.95107V9.75361L12.4223 5.77707H13.6663V9.82188H14.4957V10.5728H13.6663V11.7333H12.7608ZM10.7551 9.82188H12.7608V6.65601H12.71L10.7551 9.82188ZM33.742 10.5728V11.7333H34.6475V10.5728H35.4769V9.82188H34.6475V5.77707H33.4034L30.9323 9.75361V10.5728H33.742ZM33.742 9.82188H31.7362L33.6912 6.65601H33.742V9.82188Z" fill="#DAC397"/>
</svg>
