<svg width="23" height="23" viewBox="0 0 23 23" fill="none" xmlns="http://www.w3.org/2000/svg">
<path d="M22.8596 21.3951L16.1783 14.7477C17.4455 13.1912 18.2084 11.2124 18.2084 9.05787C18.2084 4.06339 14.1242 0 9.10416 0C4.08413 0 0 4.06339 0 9.05787C0 14.0524 4.08417 18.1157 9.10421 18.1157C11.2697 18.1157 13.2587 17.3568 14.8232 16.096L21.5045 22.7433C21.6917 22.9295 21.995 22.9295 22.1822 22.7433L22.8597 22.0693C23.0468 21.8831 23.0468 21.5812 22.8596 21.3951ZM9.10421 16.2088C5.14078 16.2088 1.91669 13.0011 1.91669 9.05787C1.91669 5.11462 5.14078 1.90693 9.10421 1.90693C13.0676 1.90693 16.2917 5.11462 16.2917 9.05787C16.2917 13.0011 13.0676 16.2088 9.10421 16.2088Z" fill="white"/>
</svg>
