<svg width="29" height="38" fill="none" xmlns="http://www.w3.org/2000/svg"><path d="M14.334 9.217a5.125 5.125 0 100 10.25 5.125 5.125 0 000-10.25zm0 7.688a2.563 2.563 0 110-5.125 2.563 2.563 0 010 5.125z" fill="#441D06"/><path d="M24.182 4.487a13.928 13.928 0 00-21.517 17.45l9.68 14.863a2.372 2.372 0 003.975 0l9.682-14.863a13.928 13.928 0 00-1.821-17.45zm-.325 16.05l-9.523 14.62-9.523-14.62C1.896 16.064 2.521 10.076 6.298 6.3a11.365 11.365 0 0116.072 0c3.776 3.776 4.401 9.764 1.486 14.239z" fill="#441D06"/></svg>