<svg width="21" height="13" viewBox="0 0 21 13" fill="none" xmlns="http://www.w3.org/2000/svg">
<path fill-rule="evenodd" clip-rule="evenodd" d="M20.0626 1.62369C19.7955 1.43119 18.8282 1.43115 17.8668 1.43115C17.1389 1.40728 16.4101 1.44432 15.6886 1.54195C15.475 1.61778 15.0062 2.72026 14.4009 3.85192C13.7006 5.13525 12.8578 6.37194 12.3178 6.35444C11.6115 6.35444 11.7777 4.24874 11.8311 2.69124C11.837 1.67624 11.6708 1.34348 11.5225 1.25598C11.0819 1.03696 10.6155 0.872466 10.1338 0.766069C10.1338 0.766069 7.08331 0.538602 6.65601 1.82193C7.24355 1.89777 8.2406 1.72284 7.85484 5.68366C7.82517 5.882 7.38604 7.50942 5.96764 5.31025C5.61155 4.75609 4.25254 1.44865 3.77776 1.43115C2.21099 1.40198 0.655994 1.33786 0.115933 1.62369C-0.388518 1.91536 0.798439 4.18444 2.79844 7.22944C4.42456 9.7261 6.14573 11.6629 9.13683 12.147C9.96721 12.2521 10.8096 12.2205 11.6294 12.0536C11.938 11.9078 11.5522 9.75525 12.6145 9.53941C13.0833 9.45775 14.9113 11.7911 15.5937 12.0536C16.3349 12.2434 17.1035 12.3085 17.8668 12.2462C18.8876 12.217 20.0388 12.3453 20.1516 11.6628C20.4008 10.1812 17.0715 8.24454 16.9825 7.33454C16.9054 6.67538 18.1991 5.46187 18.8578 4.53437C19.6709 3.40854 20.573 2.05536 20.0626 1.62369Z" fill="#ccc"/>
</svg>
