<svg width="20" height="19" viewBox="0 0 20 19" fill="none" xmlns="http://www.w3.org/2000/svg">
<path d="M14.5054 0.110352H5.15887C2.53487 0.110352 0.400391 2.24512 0.400391 4.86883V14.2153C0.400391 16.8393 2.53487 18.9735 5.15887 18.9735H14.5054C17.1294 18.9735 19.2635 16.8393 19.2635 14.2153V4.86883C19.2635 2.24512 17.1294 0.110352 14.5054 0.110352ZM17.2109 14.2153C17.2109 15.7073 15.9971 16.9212 14.5054 16.9212H5.15887C3.66717 16.9212 2.45328 15.7073 2.45328 14.2153V4.86883C2.45328 3.37713 3.66717 2.16353 5.15887 2.16353H14.5054C15.9971 2.16353 17.2109 3.37713 17.2109 4.86883V14.2153Z" fill="#ccc"/>
<path d="M14.8471 5.68798C14.2131 5.68798 13.6973 5.17242 13.6973 4.53843C13.6973 3.90472 14.2131 3.38916 14.8471 3.38916C15.4811 3.38916 15.9967 3.90472 15.9967 4.53843C15.9967 5.17242 15.4811 5.68798 14.8471 5.68798Z" fill="#ccc"/>
<path d="M9.83057 4.68408C7.15217 4.68408 4.97266 6.8633 4.97266 9.54199C4.97266 12.2207 7.15217 14.4002 9.83057 14.4002C12.5096 14.4002 14.6891 12.2207 14.6891 9.54199C14.6891 6.86359 12.5096 4.68408 9.83057 4.68408ZM9.83057 12.3479C8.28447 12.3479 7.02525 11.089 7.02525 9.54199C7.02525 7.9956 8.28447 6.73726 9.83057 6.73726C11.3775 6.73726 12.6359 7.9956 12.6359 9.54199C12.6359 11.089 11.3775 12.3479 9.83057 12.3479Z" fill="#ccc"/>
</svg>
