<svg width="19" height="15" viewBox="0 0 19 15" fill="none" xmlns="http://www.w3.org/2000/svg">
<path fill-rule="evenodd" clip-rule="evenodd" d="M18.78 2.05134C18.0877 2.33779 17.359 2.5301 16.6139 2.62299C17.4028 2.1795 17.9969 1.46474 18.2816 0.616363C17.5357 1.03907 16.7235 1.33661 15.8781 1.49706C15.5219 1.1315 15.0931 0.841472 14.6185 0.644845C14.1439 0.448218 13.6333 0.349179 13.1183 0.353749C12.1328 0.34283 11.1832 0.716078 10.4769 1.39167C9.77068 2.06727 9.3656 2.99031 9.34997 3.95885C9.35634 4.23628 9.39412 4.51196 9.46269 4.78116C7.97167 4.71794 6.51042 4.35043 5.17191 3.70165C3.8334 3.05286 2.6469 2.13705 1.68817 1.01285C1.19901 1.80299 1.04563 2.75057 1.26104 3.65095C1.47644 4.55132 2.04332 5.33228 2.83947 5.82534C2.24357 5.81533 1.65899 5.66333 1.13614 5.38215V5.42886C1.13382 5.87527 1.22258 6.31759 1.39724 6.72968C1.63432 7.2983 2.01216 7.79979 2.49608 8.18887C2.98 8.57795 3.55497 8.84223 4.16898 8.95791C3.8443 9.04655 3.50882 9.09167 3.17185 9.09206C2.93442 9.09054 2.69782 9.0652 2.46566 9.0163C2.71732 9.74066 3.19045 10.371 3.82038 10.821C4.45031 11.271 5.20639 11.5188 5.98504 11.5305C4.64208 12.5382 2.99783 13.0816 1.30827 13.0763C0.999668 13.0763 0.708995 13.053 0.400391 13.0239C2.13528 14.0845 4.13757 14.6461 6.18064 14.6454C8.60944 14.7038 10.9832 13.9295 12.8946 12.4553C14.8059 10.9811 16.1358 8.89891 16.6556 6.56619C16.8221 5.85053 16.9057 5.1188 16.9048 4.38467V3.91783C17.6357 3.40763 18.2702 2.77609 18.78 2.05134Z" fill="#ccc"/>
</svg>
