<svg width="19" height="14" viewBox="0 0 19 14" fill="none" xmlns="http://www.w3.org/2000/svg">
<path fill-rule="evenodd" clip-rule="evenodd" d="M18.1023 3.02942C18.0141 2.36389 17.7687 1.72967 17.3868 1.1803C16.9185 0.689618 16.2781 0.404772 15.6039 0.387044C13.1055 0.200377 9.35521 0.200195 9.35521 0.200195H9.33211C9.33211 0.200195 5.59321 0.200377 3.09487 0.387044C2.41649 0.401155 1.7712 0.686333 1.30038 1.1803C0.918492 1.72967 0.673091 2.36389 0.584924 3.02942C0.470401 4.02676 0.408869 5.02953 0.400391 6.03353V7.45711C0.408044 8.46114 0.469578 9.46395 0.584924 10.4612C0.674187 11.1301 0.919408 11.7678 1.30038 12.322C1.83868 12.8274 2.54492 13.1104 3.27954 13.1153C4.70469 13.2611 9.35521 13.3078 9.35521 13.3078C9.35521 13.3078 13.1055 13.2903 15.6039 13.1153C15.9383 13.1094 16.2682 13.0362 16.5743 12.8999C16.8804 12.7637 17.1566 12.5673 17.3868 12.322C17.7678 11.7678 18.013 11.1301 18.1023 10.4612C18.2104 9.46346 18.2682 8.46082 18.2754 7.45711V6.03353C18.2674 5.02984 18.2097 4.02725 18.1023 3.02942ZM12.3266 6.55875L7.49156 9.16609V3.93376L9.68399 5.12378L12.3266 6.55875Z" fill="#ccc"/>
</svg>
