<svg width="191" height="152" fill="none" xmlns="http://www.w3.org/2000/svg"><path fill-rule="evenodd" clip-rule="evenodd" d="M55.853 144.391a76.002 76.002 0 01-4.579-134.366A76 76 0 1193 151.895V152H0v-2.5h92.436a73.578 73.578 0 0055.45-117.619 73.578 73.578 0 00-128.55 20.433 73.58 73.58 0 0037.572 89.899l-1.055 2.178zM121 152h70v-2.5h-70v2.5zM82.067 39v8.341L64.62 52.016l6.301 23.518-3.805 3.805c-.232.23-.545.36-.872.361H64.8V76H50v37h14.8v-3.7h1.644c.267.001.526.087.74.247l3.617 2.713c.64.479 1.419.739 2.22.74H124V39H82.067zm-2.039 41.933L75.575 64.31a8.639 8.639 0 005.168-8.96l1.324-.351v25.935h-2.039zm2.039-31.039v2.55l-4.263 1.134.321 1.195a6.163 6.163 0 01-4.355 7.553l-1.194.317 4.899 18.29h-1.603a1.233 1.233 0 01-1.192-.914l-7.03-26.26 14.417-3.865zm-19.734 60.64h-9.866V78.467h9.866v32.067zm10.69 0a1.249 1.249 0 01-.74-.247l-3.617-2.713a3.71 3.71 0 00-2.22-.74H64.8V82.167h1.445a3.672 3.672 0 002.616-1.084l2.799-2.799.635 2.373A3.7 3.7 0 0075.87 83.4h28.398a2.466 2.466 0 010 4.933H88.233V90.8H109.2a2.467 2.467 0 010 4.934H88.233V98.2h16.034a2.466 2.466 0 010 4.933H88.233v2.467h11.1a2.467 2.467 0 010 4.934h-26.31zM108.514 98.2h.686a4.934 4.934 0 000-9.867h-.686a4.809 4.809 0 00-.332-5.433 8.617 8.617 0 001.792-11.989 8.619 8.619 0 00-14.023 10.022h-6.484v-27.22a8.654 8.654 0 007.312-7.313h12.508a8.654 8.654 0 007.313 7.313v44.574a8.654 8.654 0 00-7.313 7.313h-5.02a4.934 4.934 0 004.933-4.933 4.882 4.882 0 00-.686-2.467zm-9.155-17.267a6.167 6.167 0 116.784.37 4.915 4.915 0 00-1.876-.37h-4.908zm22.174 29.601h-17.952a4.885 4.885 0 00.686-2.467h7.4v-1.233a6.173 6.173 0 016.166-6.167h1.234V51.333h-1.234a6.173 6.173 0 01-6.166-6.166v-1.233H94.4v1.233a6.174 6.174 0 01-6.167 6.166H87v29.6h-2.467V41.467h37v69.067zm-17.266-55.5H101.8v7.4h2.467v-7.4z" fill="#441D06"/></svg>