<svg width="64" height="64" fill="none" xmlns="http://www.w3.org/2000/svg"><g clip-path="url(#clip0_208:268)" fill="#FAE026"><path d="M32 64C14.4 64 0 49.6 0 32S14.4 0 32 0s32 14.4 32 32-14.4 32-32 32zm0-62C15.5 2 2 15.5 2 32s13.5 30 30 30 30-13.5 30-30S48.5 2 32 2z"/><path d="M32 46.3c-7.9 0-14.3-6.4-14.3-14.3V4c0-.6.4-1 1-1s1 .4 1 1v28c0 6.8 5.5 12.3 12.3 12.3 6.8 0 12.3-5.5 12.3-12.3 0-6.5-5.1-11.9-11.5-12.3-.6 0-1-.5-.9-1.1 0-.6.5-1 1.1-.9 7.5.5 13.4 6.8 13.4 14.3-.1 7.9-6.5 14.3-14.4 14.3z"/><path d="M32 53c-11.6 0-21-9.4-21-21V8.3c0-.6.4-1 1-1s1 .4 1 1V32c0 10.5 8.5 19 19 19s19-8.5 19-19c0-9.8-7.4-17.9-17.1-18.9v11.5c3.3.9 5.8 3.9 5.8 7.4 0 4.2-3.4 7.7-7.7 7.7-4.3 0-7.7-3.4-7.7-7.7V2.2c0-.6.4-1 1-1s1 .4 1 1V32c0 3.1 2.5 5.7 5.7 5.7s5.7-2.5 5.7-5.7c0-2.8-2.1-5.2-4.9-5.6-.5-.1-.9-.5-.9-1V12c0-.3.1-.5.3-.7.2-.2.5-.3.7-.3 11.3.5 20.1 9.7 20.1 21 0 11.6-9.4 21-21 21z"/></g><defs><clipPath id="clip0_208:268"><rect width="64" height="64" rx="5" fill="#fff"/></clipPath></defs></svg>