<svg width="57" height="69" fill="none" xmlns="http://www.w3.org/2000/svg"><path d="M42.82 16.665L26.411.258A.88.88 0 0025.79 0H5.281a4.986 4.986 0 00-4.98 4.98v49.223a4.986 4.986 0 004.98 4.98h23.846a14.064 14.064 0 1013.95-18.3V17.286a.88.88 0 00-.258-.621zM26.67 3l13.405 13.406H29.892a3.227 3.227 0 01-3.223-3.223V3.002zM5.28 57.426a3.227 3.227 0 01-3.223-3.223V4.981A3.227 3.227 0 015.28 1.758h19.63v11.427a4.986 4.986 0 004.981 4.98H41.32v22.76a14.071 14.071 0 00-12.627 16.501H5.282zm49.56-2.49c0 6.795-5.51 12.305-12.306 12.305-6.797 0-12.306-5.51-12.306-12.306 0-6.795 5.51-12.305 12.306-12.305 6.792.008 12.297 5.512 12.305 12.305z" fill="#1AB9EC"/></svg>