<svg width="22" height="20" fill="none" xmlns="http://www.w3.org/2000/svg"><path d="M22 .938v4.999c0 .838-.991 1.25-1.565.663l-1.364-1.395-9.3 9.512a.902.902 0 01-1.297 0l-.864-.883a.953.953 0 010-1.326l9.3-9.513L15.548 1.6c-.575-.588-.168-1.6.648-1.6h4.888c.507 0 .917.42.917.938zm-6.454 9.64l-.61.625a.94.94 0 00-.27.663V17.5H2.445V5h10.084a.906.906 0 00.648-.275l.611-.625c.577-.59.168-1.6-.648-1.6H1.833C.821 2.5 0 3.34 0 4.375v13.75C0 19.16.82 20 1.833 20h13.445c1.012 0 1.833-.84 1.833-1.875v-6.884c0-.835-.987-1.254-1.565-.663z" fill="#fff"/></svg>