<svg width="23" height="24" viewBox="0 0 23 24" fill="none" xmlns="http://www.w3.org/2000/svg">
<path d="M22.8596 22.2882L16.1783 15.6409C17.4455 14.0843 18.2084 12.1055 18.2084 9.951C18.2084 4.95652 14.1242 0.893127 9.10416 0.893127C4.08413 0.893127 0 4.95652 0 9.951C0 14.9455 4.08417 19.0089 9.10421 19.0089C11.2697 19.0089 13.2587 18.2499 14.8232 16.9891L21.5045 23.6365C21.6917 23.8226 21.995 23.8226 22.1822 23.6365L22.8597 22.9624C23.0468 22.7762 23.0468 22.4744 22.8596 22.2882ZM9.10421 17.1019C5.14078 17.1019 1.91669 13.8943 1.91669 9.951C1.91669 6.00775 5.14078 2.80006 9.10421 2.80006C13.0676 2.80006 16.2917 6.00775 16.2917 9.951C16.2917 13.8943 13.0676 17.1019 9.10421 17.1019Z" fill="white"/>
</svg>
