<svg width="26" height="28" viewBox="0 0 26 28" fill="none" xmlns="http://www.w3.org/2000/svg">
<path d="M0 11.7256L2.50517 25.2056C2.74282 26.5361 3.89917 27.5095 5.25731 27.5225H20.2177C21.5759 27.5095 22.7322 26.5361 22.9698 25.2056L25.475 11.7256H0ZM8.1506 17.7636C8.1506 18.1513 7.83467 18.4657 7.44492 18.4657C7.05518 18.4657 6.73924 18.1513 6.73924 17.7636V15.6573C6.73924 15.2696 7.05518 14.9552 7.44492 14.9552C7.83467 14.9552 8.1506 15.2696 8.1506 15.6573V17.7636ZM18.7358 17.7636C18.7358 18.1513 18.4199 18.4657 18.0301 18.4657C17.6404 18.4657 17.3244 18.1513 17.3244 17.7636V15.6573C17.3244 15.2696 17.6404 14.9552 18.0301 14.9552C18.4199 14.9552 18.7358 15.2696 18.7358 15.6573V17.7636Z" fill="white"/>
<path d="M8.15061 6.88119C8.15061 4.36083 10.2042 2.31766 12.7375 2.31766C15.2707 2.31766 17.3244 4.36083 17.3244 6.88119V11.0235H18.7357V6.88119C18.7358 3.5853 16.0502 0.913483 12.7375 0.913483C9.42474 0.913483 6.73926 3.5853 6.73926 6.88119V11.0235H8.15061V6.88119Z" fill="white"/>
</svg>
