<svg xmlns="http://www.w3.org/2000/svg" viewBox="0 0 611.978 611.978"><path d="M611.907 131.704V84.632c-1.571-16.214-12.357-27-27.786-28.571h-93.357V35.204c0-14.643-12.357-27-27-27H139.836c-14.643 0-27 12.357-27 27v20.857H27.978C12.55 56.846 1.764 68.418.193 84.632v47.072c-.786 12.357-4.643 131.929 123.429 152 20.071 56.286 66.357 101.071 125 118v76.357l-101.857 48.571s-.786 0-.786.786c-14.643 8.5-22.357 20.857-22.357 34.714v16.215c1.571 15.429 12.357 25.429 28.571 25.429h300.071c16.214 0 27.786-10 28.571-25.429v-16.215c0-13.857-7.714-26.214-22.357-34.714l-.786-.786-100.286-47.857v-77.786c56.286-17 101.857-60.929 122.643-116.5 43.214-5.429 76.357-21.571 99.5-48.571 35.501-42.5 32.358-96.5 32.358-104.214zm-496 121.928C21.05 231.275 27.979 138.704 28.764 134.061V84.633h84.072v135.786c0 5.429 0 10 .786 15.429v1.571c.714 5.427 1.5 9.999 2.285 16.213 0-.786 0-.786 0 0zm336.357 307.786v13.143H151.407v-13.143c0-3.857 4.643-7.714 7.714-9.286l104.929-49.357h75.571l104.929 49.357c3.072 1.572 7.714 5.429 7.714 9.286zm-124.214-152v64.786h-50.929v-64.786h50.929zm-26.214-28.5c-72.5 0-133.429-47.857-153.5-113.429-.786-3.857-2.286-7.714-3.071-11.571-1.571-6.929-2.286-14.643-3.071-21.571v-2.286c0-3.857-.786-6.929-.786-10.786V36.846H461.55v182.857c0 3.857 0 6.929-.786 10.786v2.286c0 3.071-.786 6.929-.786 10v.786c-.786 3.857-1.571 6.929-2.286 10.786 0 .786 0 1.571-.786 2.286-.786 3.071-1.571 6.143-2.286 9.286-19.356 66.356-81.07 114.999-152.784 114.999zm255.357-162.786c-16.214 19.286-39.357 31.643-69.429 37v-.786c.786-5.429 1.571-10 2.286-15.429v-1.571c.786-5.429.786-10.786.786-16.214V84.704h92.572v49.428c-.001.714 3.856 47.714-26.215 84zm-284.714 95.643c-2.286 5.429-7.714 9.286-13.143 9.286-1.571 0-3.071 0-5.429-.786-47.071-17.714-57.071-60.143-56.286-79.429v-145c0-7.714 6.143-13.857 13.857-13.857 7.714 0 13.857 6.143 13.857 13.857v145.786c0 2.286-1.571 37.786 37.786 52.429 8.643 2.285 12.501 10.785 9.358 17.714z"/></svg>