<svg xmlns="http://www.w3.org/2000/svg" width="79.538" height="79.537"><path d="M22.045 11.273c0 3.218-2.62 5.828-5.843 5.828-3.226 0-5.844-2.61-5.844-5.828a5.837 5.837 0 015.844-5.833c3.223 0 5.843 2.61 5.843 5.833zm-5.23 39.942l1.264 21.525a1.37 1.37 0 001.362 1.372c.758 0 1.372-.621 1.372-1.372l1.167-21.525h3.806l-3.933-24.13 7.922 15.778a1.372 1.372 0 001.792.735 1.378 1.378 0 00.73-1.8s-5.805-15.7-7.241-18.625c-1.437-2.929-2.848-4.71-8.298-4.71h-1.113c-5.438 0-6.864 1.776-8.288 4.71C5.925 26.098.113 41.798.113 41.798c-.303.707.026 1.5.715 1.8a1.388 1.388 0 001.805-.735l7.922-15.778-3.94 24.13h3.801l1.183 21.525c0 .751.616 1.372 1.362 1.372.774 0 1.385-.621 1.385-1.372l1.175-21.525h1.294zm46.518-45.79c-3.226 0-5.851 2.609-5.851 5.833 0 3.223 2.619 5.833 5.851 5.833a5.832 5.832 0 005.825-5.833 5.829 5.829 0 00-5.825-5.833zm6.047 34.333l.389-12.688 7.125 15.783a1.372 1.372 0 001.797.725 1.373 1.373 0 00.74-1.8s-5.018-15.7-6.451-18.623c-1.439-2.926-3.651-4.702-9.094-4.702h-1.118c-5.437 0-7.653 1.776-9.093 4.702-1.424 2.923-6.438 18.623-6.438 18.623a1.368 1.368 0 00.722 1.8 1.347 1.347 0 001.787-.725l7.141-15.783.383 12.688-1.123 31.9c-.078 1.258.869 2.355 2.123 2.443.062.011.118.011.165.011a2.309 2.309 0 002.299-2.134l2.584-26.269 2.615 26.269a2.273 2.273 0 002.273 2.134c.057 0 .108 0 .165-.011a2.292 2.292 0 002.123-2.443l-1.129-31.9h.015zm-29.615 1.129c-1.983 0-3.591 1.598-3.591 3.57a3.583 3.583 0 003.591 3.578 3.58 3.58 0 003.583-3.578 3.576 3.576 0 00-3.583-3.57zm0 21.078s1.613 11.189 1.613 11.199c.223.555.735.948 1.362.948.642 0 1.183-.43 1.377-1.01.011-.036.049-.699.011-.808l-.663-13.753.212-4.728c.187-1.605.223-1.124 2.048-2.217 1.872-1.118 5.036-6.043 5.191-6.281.15-.248.44-.673.497-.952a.924.924 0 00-.72-1.067c-.373-.062-.688.134-.932.394-.244.269-3.895 5.126-6.631 5.592-.613-.088-1.276-.414-3.021-.414h-.689c-1.735 0-2.397.331-3.017.414-2.742-.466-6.395-5.323-6.651-5.592-.233-.26-.536-.456-.917-.394a.91.91 0 00-.714 1.067c.052.279.339.704.497.952.158.238 3.334 5.163 5.191 6.281 1.831 1.093 1.872.611 2.048 2.217l.205 4.728-.657 13.753c-.037.113 0 .776.028.808.189.58.72 1.01 1.367 1.01.616 0 1.144-.394 1.351-.948-.005-.01 1.614-11.199 1.614-11.199" fill="#010002"/></svg>