<svg xmlns="http://www.w3.org/2000/svg" width="792" height="792"><path d="M396.065 792l-10.155-17.896c-1.455-2.568-146.629-258.487-186.97-333.421-25.627-47.655-55.543-125.467-55.543-187.953C143.397 113.377 256.721 0 396.012 0c139.275 0 252.591 113.377 252.591 252.73 0 60.357-27.957 141.853-54.273 187.899-47.099 82.138-186.792 330.929-188.192 333.429L396.065 792zm-.053-768.78c-126.489 0-229.394 102.96-229.394 229.51 0 54.436 26.502 128.099 52.764 176.947C253.354 492.774 362.109 685 395.958 744.746c33.089-58.896 138.5-246.399 178.201-315.65 25.171-44.041 51.209-122.069 51.209-176.366.015-126.55-102.883-229.51-229.356-229.51zm0 343.429c-63.214 0-114.639-51.441-114.639-114.67 0-63.244 51.425-114.701 114.639-114.701 63.189 0 114.606 51.457 114.606 114.701-.007 63.229-51.416 114.67-114.606 114.67zm0-206.15c-50.412 0-91.418 41.038-91.418 91.48 0 50.427 41.007 91.45 91.418 91.45 50.388 0 91.388-41.03 91.388-91.45-.008-50.442-41.008-91.48-91.388-91.48z"/></svg>