<svg xmlns="http://www.w3.org/2000/svg" viewBox="0 0 64 64.001"><path d="M33 17.001c-8.271 0-15 6.729-15 15s6.729 15 15 15 15-6.729 15-15-6.729-15-15-15zm0 28c-7.168 0-13-5.832-13-13s5.832-13 13-13 13 5.832 13 13-5.832 13-13 13z"/><path d="M33 10.001c-12.131 0-22 9.869-22 22s9.869 22 22 22 22-9.869 22-22-9.869-22-22-22zm0 42c-11.028 0-20-8.972-20-20s8.972-20 20-20 20 8.972 20 20-8.972 20-20 20zm30-52a3.32 3.32 0 00-3.272 2.838l-3.717 26.02c-.044.311.06.625.281.847L58 31.421V61c0 1.654 1.346 3 3 3s3-1.346 3-3V1a1 1 0 00-1-.999zm-1 61c0 .551-.449 1-1 1s-1-.449-1-1V31.008a1 1 0 00-.292-.706l-1.648-1.655 3.646-25.526c.036-.247.14-.471.293-.652v58.532z"/><path d="M14 14.764V1.001a1 1 0 00-1.966-.26L9.663 9.55 7.982.812a1 1 0 00-1.964 0L4.337 9.55 1.965.74A.999.999 0 000 1.001v13.764c0 1.761.978 3.343 2.553 4.131A2.602 2.602 0 014 21.237v39.657c0 1.516 1.076 2.834 2.503 3.066A3 3 0 0010 61.001V21.237c0-.998.555-1.896 1.447-2.342A4.593 4.593 0 0014 14.764zm-3.447 2.342A4.593 4.593 0 008 21.237v39.764a.995.995 0 01-.353.762c-.228.193-.52.271-.823.224-.462-.076-.824-.556-.824-1.093V21.237a4.593 4.593 0 00-2.553-4.131A2.605 2.605 0 012 14.764V8.562l1.534 5.699c.121.45.527.744 1.002.74a1 1 0 00.945-.811L7 6.296l1.518 7.894a1 1 0 00.945.811c.464.007.881-.29 1.002-.74L12 8.562v6.203c0 .997-.555 1.895-1.447 2.341zM31 37.001h2v2h-2zm4 0h2v2h-2zm4 0h2v2h-2z"/></svg>