<svg height="148" width="69" xmlns="http://www.w3.org/2000/svg"><style><![CDATA[.st0{fill:#EF3E42}.st1{fill:#FFFFFF}.st3{fill-rule:evenodd;clip-rule:evenodd;fill:#FFFFFF}]]></style><path d="M43.8 96.2l3.9-1.3c2.3-.8 4.8.5 5.6 2.8l6.9 21.1c.8 2.3-.5 4.8-2.8 5.6l-3.9 1.3-9.7-29.5zM27 76.1c6.2 19 10.5 21.3 13.2 21.3l9.5 29.6c-6.5 2.1-17.6-6.6-21.6-11.2-7-8.2-13.7-21.1-18-34.4-4.9-15.2-6.3-27.6-5.2-37.9.9-8.1 5.4-18.7 11.1-20.8l9.8 30.1c-3.2 1.6-4.5 5.9 1.2 23.3zm-7.5-54.5l3.9-1.3c2.3-.8 4.8.5 5.6 2.8l7.1 21.7c.8 2.3-.5 4.8-2.8 5.6l-3.9 1.3-9.9-30.1z"/><path id="_x3C_Slice_x3E__100_" fill="none" d="M0 0h69v148H0z"/></svg>