<svg width="223" height="152" fill="none" xmlns="http://www.w3.org/2000/svg"><path d="M63.853 144.391a76.002 76.002 0 01-4.579-134.367 76 76 0 1140.989 141.906l-.103-2.418a73.577 73.577 0 0070.181-67.587 73.577 73.577 0 00-58.422-77.977 73.58 73.58 0 00-47.01 138.265l-1.056 2.178z" fill="#441D06"/><path stroke="#441D06" stroke-width="2.5" d="M8 150.75h93m28 0h70"/><path d="M75.351 100.863c.017.011.04.006.056.017a.957.957 0 00.434.12.944.944 0 00.248-.034l20.41-5.561 20.411 5.561a.95.95 0 00.248.034.924.924 0 00.432-.122c.019-.009.04-.005.057-.017l16.902-10.312a.94.94 0 00.413-1.056l-9.36-32.812a.928.928 0 00-.96-.682.93.93 0 00-.403.12l-9.319 5.22a.94.94 0 00.922 1.634l8.28-4.64 8.84 30.986-15.053 9.185-3.575-28.558a.938.938 0 00-1.049-.814.94.94 0 00-.816 1.047l3.581 28.61-18.611-5.072V88.6a.937.937 0 00-.94-.938.94.94 0 00-.938.938v5.118L76.947 98.79l3.582-28.61a.937.937 0 00-1.182-1.021.941.941 0 00-.683.788L75.09 98.504l-15.053-9.183 8.84-30.985 8.28 4.64a.942.942 0 001.333-1.07.94.94 0 00-.41-.564l-9.32-5.222a.932.932 0 00-1.363.563l-9.36 32.812a.933.933 0 00.413 1.056l16.901 10.312z" fill="#441D06"/><path d="M95.863 84.815a.94.94 0 001.268.006c.626-.569 15.332-14.042 15.332-27.883 0-8.939-7.01-15.938-15.963-15.938s-15.963 7-15.963 15.938c0 13.6 14.701 27.3 15.326 27.877zm.637-41.94c8.029 0 14.085 6.045 14.085 14.063 0 11.431-11.255 23.131-14.08 25.888-2.818-2.788-14.09-14.642-14.09-25.888 0-8.018 6.056-14.063 14.085-14.063z" fill="#441D06"/><path d="M104.951 56.938c0-4.652-3.792-8.438-8.451-8.438-4.66 0-8.451 3.786-8.451 8.438 0 4.651 3.792 8.437 8.451 8.437 4.659 0 8.451-3.786 8.451-8.438zM96.5 63.5c-3.625 0-6.573-2.944-6.573-6.563 0-3.618 2.948-6.562 6.573-6.562 3.625 0 6.573 2.944 6.573 6.563 0 3.618-2.948 6.562-6.573 6.562z" fill="#441D06"/></svg>