<?xml version="1.0" ?><!DOCTYPE svg  PUBLIC '-//W3C//DTD SVG 1.1//EN'  'http://www.w3.org/Graphics/SVG/1.1/DTD/svg11.dtd'><svg id="Capa_1" style="enable-background:new 0 0 430.1 430.1;" version="1.1" viewBox="0 0 430.1 430.1" xml:space="preserve" xmlns="http://www.w3.org/2000/svg" xmlns:xlink="http://www.w3.org/1999/xlink"><g><g><path d="M292.9,430.1c75,0,135.9-61.1,136.3-135.7l0.8-109.8l-1.3-6l-3.6-7.5l-6.1-4.7c-7.9-6.2-48,0.4-58.8-9.4     c-7.7-7-8.9-19.6-11.2-36.8c-4.3-33.2-7-34.9-12.2-46.2C318.1,34.2,266.8,4.1,231.6,0h-95.3C61.3,0,0,61.2,0,135.9v158.5     C0,369,61.3,430.1,136.3,430.1L292.9,430.1L292.9,430.1z M138.1,111h75.6c14.4,0,26.1,11.7,26.1,26c0,14.2-11.7,26-26.1,26h-75.6     c-14.4,0-26.1-11.8-26.1-26C112,122.7,123.6,111,138.1,111z M112,292.4c0-14.2,11.7-25.9,26.1-25.9h153.6c14.3,0,26,11.6,26,25.9     c0,14-11.6,25.9-26,25.9H138.1C123.6,318.3,112,306.5,112,292.4z" id="Blogger" fill='#fff'/></g></g></svg>