<svg width="718" height="631" fill="none" xmlns="http://www.w3.org/2000/svg"><path d="M469.375 439.735a172.49 172.49 0 01-7.3 4.431 186.578 186.578 0 01-69.115 23.527 186.447 186.447 0 01-72.838-4.802M530.63 188.686a187.073 187.073 0 0124.663 105.082 187.271 187.271 0 01-37.487 101.26M203.262 194.784a187.349 187.349 0 01186.442-98.363 187.15 187.15 0 0170.547 22.708M206.546 375.796a186.337 186.337 0 01-23.483-69.086 186.423 186.423 0 014.844-72.821m-49.584 126.862a240.426 240.426 0 01-11.159-48.423 243.968 243.968 0 0138.889-164.636m190.661 377.41a244.053 244.053 0 01-134.897-48.878 241.986 241.986 0 01-58.435-63.417m399.19 16.045a244.148 244.148 0 01-163.997 94.684m170.046-379.724a254.097 254.097 0 0110.622 16.807 241.776 241.776 0 0130.974 149.169M417.367 44.034c4.781.983 9.527 2.101 14.24 3.357a242.253 242.253 0 01118.335 72.675" stroke="#fff" stroke-width="1.336" stroke-miterlimit="10"/><path d="M149.088 368.637l-17.238 9.952 15.215 26.353 17.238-9.952-15.215-26.353zm7.817 33.444a2.11 2.11 0 00-.84.898 2.11 2.11 0 00.309 2.332 2.11 2.11 0 002.276.602 2.122 2.122 0 001.425-1.873 2.12 2.12 0 00-1.569-2.173 2.118 2.118 0 00-1.601.214z" fill="#fff"/><path d="M132.733 360.213a32.763 32.763 0 00-12.998 13.872 32.703 32.703 0 0020.875 46.079 32.758 32.758 0 0041.151-29.484 32.706 32.706 0 00-24.185-33.744 32.755 32.755 0 00-24.843 3.277zm36.973 39.551a1.932 1.932 0 01-.707 2.635l-17.896 10.332a1.934 1.934 0 01-2.162-.117 1.924 1.924 0 01-.503-.571l-19.983-34.611a1.928 1.928 0 01.707-2.635l17.925-10.349a1.928 1.928 0 012.636.705l19.983 34.611z" fill="#fff"/><path d="M277.113 92.4c11.388-6.575 15.293-21.13 8.723-32.51-6.57-11.38-21.128-15.275-32.516-8.7-11.388 6.575-15.294 21.13-8.723 32.51 6.57 11.38 21.128 15.275 32.516 8.7z" stroke="#fff" stroke-width="1.336" stroke-linecap="round" stroke-linejoin="round"/><path d="M253.313 65.187l23.358-.006-11.684 20.226-11.674-20.22z" stroke="#fff" stroke-width="1.336" stroke-linecap="round" stroke-linejoin="round"/><path d="M603.956 328.624a2.591 2.591 0 00-1.27 2.575 2.585 2.585 0 001.892 2.157 2.59 2.59 0 003.248-2.327 2.579 2.579 0 00-1.909-2.663 2.59 2.59 0 00-1.961.258zm-7.98 4.608a2.587 2.587 0 00-1.271 2.574 2.582 2.582 0 004.612 1.234 2.588 2.588 0 00.189-2.864 2.584 2.584 0 00-3.53-.944z" fill="#fff"/><path d="M593.34 310.236a27.402 27.402 0 00-10.877 11.599 27.355 27.355 0 0017.449 38.55 27.406 27.406 0 0034.426-24.658 27.366 27.366 0 00-3.605-15.478 27.363 27.363 0 00-16.618-12.747 27.397 27.397 0 00-20.775 2.734zm28.044 21.443l5.808 10.059-11.478-2.104a24.429 24.429 0 01-3.817 2.744c-8.68 5.011-18.692 3.924-22.368-2.442-3.675-6.366.396-15.571 9.075-20.582 8.679-5.011 18.682-3.918 22.352 2.438a11.518 11.518 0 01.428 9.887z" fill="#fff"/><path d="M611.846 324.069a2.587 2.587 0 00-1.271 2.575 2.586 2.586 0 001.893 2.157 2.587 2.587 0 003.248-2.327 2.58 2.58 0 00-1.909-2.663 2.59 2.59 0 00-1.961.258zM189.579 204.532a7.472 7.472 0 00-2.967 3.158 7.45 7.45 0 001.07 8.218 7.45 7.45 0 008.006 2.149 7.458 7.458 0 004.07-10.792 7.45 7.45 0 00-4.522-3.472 7.47 7.47 0 00-5.657.739z" fill="#fff"/><path d="M182.966 193.076a24.268 24.268 0 00-9.628 10.275 24.241 24.241 0 00-2.297 13.886 24.215 24.215 0 005.806 12.817 24.234 24.234 0 0011.953 7.429 24.267 24.267 0 0030.481-21.84 24.228 24.228 0 00-3.192-13.704 24.228 24.228 0 00-14.722-11.29 24.262 24.262 0 00-18.401 2.427zm20.035 34.703s-16.944-4.791-20.327-10.65a12.263 12.263 0 01-1.224-9.313 12.283 12.283 0 0115.039-8.682 12.266 12.266 0 017.453 5.715c3.388 5.87-.941 22.93-.941 22.93z" fill="#fff"/><path d="M239.219 408.505a9.562 9.562 0 00-11.688 6.748l-1.011 3.768-3.769-1.008a9.57 9.57 0 00-11.697 6.753 9.553 9.553 0 006.748 11.689l22.199 5.94 5.956-22.195a9.542 9.542 0 00-6.749-11.689l.011-.006zm349.479-181.153l-25.147 14.519 9.389 16.263 25.147-14.519-9.389-16.263z" stroke="#fff" stroke-width="1.336" stroke-linecap="round" stroke-linejoin="round"/><path d="M582.529 245.716l-18.988-3.84 25.157-14.524-6.169 18.364zm-418.532 16.632c3.041-6.255.436-13.786-5.819-16.822-6.254-3.036-13.79-.426-16.831 5.828-3.041 6.254-.435 13.785 5.819 16.821 6.255 3.036 13.79.427 16.831-5.827zm-5.305-8.988l-12.062 6.964m9.519 2.547l-6.959-12.054m387.399-76.392c-1.991-6.66-9.007-10.443-15.67-8.449-6.664 1.994-10.452 9.01-8.462 15.67 1.991 6.66 9.007 10.442 15.67 8.448 6.664-1.994 10.452-9.009 8.462-15.669zm-6.075.119l-12.062 6.964m9.502 2.542l-6.958-12.053m-8.494 130.294l5.815 3.875 6.498-2.591-1.892 6.733 4.46 5.386-6.982.28-3.743 5.912-2.424-6.561-6.787-1.722 5.503-4.338-.448-6.974z" stroke="#fff" stroke-width="1.336" stroke-linecap="round" stroke-linejoin="round"/><path d="M532.861 315.506c2.23-8.312-2.701-16.854-11.015-19.078-8.314-2.225-16.862 2.71-19.092 11.022-2.231 8.313 2.701 16.854 11.015 19.079 8.313 2.224 16.861-2.711 19.092-11.023z" stroke="#fff" stroke-width="1.336" stroke-linecap="round" stroke-linejoin="round"/><path d="M466.418 121.601l1.209 2.094 15.133-2.651-1.21-2.095-15.132 2.652z" fill="#fff"/><path d="M464.342 109.913a23.92 23.92 0 00-11.776 23.832 23.897 23.897 0 0017.516 19.979 23.947 23.947 0 0025.177-8.545 23.93 23.93 0 004.898-12.996 23.9 23.9 0 00-3.15-13.522 23.879 23.879 0 00-14.515-11.14 23.909 23.909 0 00-18.15 2.392zm27.305 23.016a.854.854 0 01.104.345 4.045 4.045 0 01-4.072 6.597 4.05 4.05 0 01-1.995-1.239 4.046 4.046 0 011.021-6.169 3.981 3.981 0 012.382-.553l-3.792-6.568-15.133 2.652 7.509 13.004a.854.854 0 01.104.345 4.046 4.046 0 11-7.035 3.219 4.044 4.044 0 011.989-4.03 3.972 3.972 0 012.382-.552l-10.763-18.642a.884.884 0 01-.032-.804.897.897 0 01.646-.495l16.882-2.919a.889.889 0 01.911.432l8.892 15.377z" fill="#fff"/><path d="M238.793 314.924c-3.944-10.604-15.743-15.999-26.354-12.049-10.61 3.949-16.014 15.747-12.07 26.352 3.944 10.604 15.743 15.998 26.354 12.049 10.61-3.95 16.014-15.748 12.07-26.352z" stroke="#fff" stroke-width="1.336" stroke-linecap="round" stroke-linejoin="round"/><path d="M229.809 339.817c5.006-2.89 4.478-13.176-1.179-22.974s-14.301-15.398-19.307-12.508c-5.006 2.89-4.478 13.176 1.179 22.974s14.301 15.398 19.307 12.508zm-20.491-35.492l20.491 35.492m-27.997-7.491l35.518-20.506" stroke="#fff" stroke-width="1.336" stroke-linecap="round" stroke-linejoin="round"/><path d="M229.809 339.817a20.405 20.405 0 009.167-11.23 16.96 16.96 0 00-20.787 6.254 16.949 16.949 0 00-2.689 7.3 20.405 20.405 0 0014.309-2.324v0zm-20.492-35.492a20.412 20.412 0 00-9.167 11.23 16.964 16.964 0 0023.476-13.554 20.405 20.405 0 00-14.309 2.324zm38.563-122.914l-7.008 4.046 4.043 7.004 7.009-4.047-4.044-7.003z" stroke="#fff" stroke-width="1.336" stroke-linecap="round" stroke-linejoin="round"/><path d="M251.923 188.414l-7.008 4.046 4.043 7.004 7.009-4.047-4.044-7.003zm4.044 7.004l-7.008 4.046 4.043 7.003 7.008-4.046-4.043-7.003z" stroke="#fff" stroke-width="1.336" stroke-linecap="round" stroke-linejoin="round"/><path d="M260.01 202.421l-7.008 4.046 4.043 7.003 7.009-4.046-4.044-7.003zm23.064-41.329l-7.009 4.046 4.044 7.004 7.008-4.047-4.043-7.003zm4.043 7.003l-7.008 4.047 4.043 7.003 7.008-4.046-4.043-7.004z" stroke="#fff" stroke-width="1.336" stroke-linecap="round" stroke-linejoin="round"/><path d="M291.16 175.099l-7.008 4.046 4.043 7.003 7.009-4.046-4.044-7.003z" stroke="#fff" stroke-width="1.336" stroke-linecap="round" stroke-linejoin="round"/><path d="M295.204 182.102l-7.009 4.046 4.044 7.003 7.008-4.046-4.043-7.003z" stroke="#fff" stroke-width="1.336" stroke-linecap="round" stroke-linejoin="round"/><path d="M276.065 165.138l-28.185 16.273 16.261 28.165 28.185-16.273-16.261-28.165z" stroke="#fff" stroke-width="1.336" stroke-linecap="round" stroke-linejoin="round"/><path d="M259.9 183.121l17.538-.005-8.768 15.196-8.77-15.191z" stroke="#fff" stroke-width="1.336" stroke-linecap="round" stroke-linejoin="round"/><path d="M393.537 48.226c3.915-2.26 5.258-7.265 2.999-11.177-2.259-3.913-7.264-5.252-11.179-2.991-3.916 2.26-5.259 7.264-3 11.177 2.259 3.912 7.264 5.252 11.18 2.991z" fill="#fff"/><path d="M372.391 11.6a32.76 32.76 0 00-12.997 13.872 32.724 32.724 0 00-3.102 18.747 32.708 32.708 0 0023.976 27.332 32.764 32.764 0 0034.45-11.7 32.739 32.739 0 006.701-17.783 32.706 32.706 0 00-24.184-33.745 32.757 32.757 0 00-24.844 3.277zm-4.551 35.013l9.307-5.374a12.27 12.27 0 006.06 10.495l-9.308 5.374-6.059-10.495zm46.256-5.696c.352.615.446 1.345.262 2.03a2.694 2.694 0 01-1.243 1.627l-32.53 18.78a2.68 2.68 0 01-3.647-.984l-2.162-3.744 10.35-5.976a12.304 12.304 0 0010.471-.867 12.317 12.317 0 005.987-8.635l10.35-5.976 2.162 3.745zm-33.764 5.487a10.52 10.52 0 015.735-15.222 10.526 10.526 0 0111.294 3.021 10.515 10.515 0 011.522 11.588 10.529 10.529 0 01-12.163 5.512 10.513 10.513 0 01-6.388-4.899zm30.731-10.74l-9.317 5.38a12.26 12.26 0 00-6.059-10.495l9.317-5.38 6.059 10.496zm-6.935-12.012l-10.351 5.976a12.3 12.3 0 00-10.471.867 12.313 12.313 0 00-5.986 8.634l-10.35 5.976-2.162-3.744a2.675 2.675 0 01.971-3.651l8.446-4.877 1.43-5.359 8.861-5.116 5.356 1.441 8.437-4.87a2.688 2.688 0 013.657.978l2.162 3.745zm-239.134 95.356a19.22 19.22 0 00-9.424 19.146 19.183 19.183 0 0014.078 16.023 19.22 19.22 0 0024.136-17.306 19.185 19.185 0 00-7.476-16.486 19.215 19.215 0 00-14.212-3.794 19.241 19.241 0 00-7.102 2.417zm19.72 21.782l-6.982.28-3.743 5.913-2.435-6.556-6.746-1.745 5.493-4.332-.444-6.99 5.821 3.885 6.498-2.591-1.902 6.738 4.44 5.398zm367.254-27.413a19.215 19.215 0 00-7.594 8.152 19.183 19.183 0 0023.425 26.601 19.225 19.225 0 009.05-6.497 19.199 19.199 0 003.921-10.425 19.17 19.17 0 00-7.477-16.481 19.186 19.186 0 00-14.224-3.782 19.224 19.224 0 00-7.101 2.432zm18.823 12.652l-3.645 13.615-13.633-3.639a5.837 5.837 0 01-4.142-7.176 5.845 5.845 0 017.18-4.145l2.306.625.621-2.315a5.847 5.847 0 017.17-4.14 5.851 5.851 0 014.298 4.893 5.837 5.837 0 01-.155 2.282zm-93.526 307.397l31.568-18.226-8.958-15.514-31.567 18.226 8.957 15.514zm22.281-23.2l-1.98 2.371 2.885.763-.651 2.427-2.875-.769.522 3.032-6.968-6.057 9.067-1.767z" fill="#fff"/><path d="M472.86 389.24a32.767 32.767 0 00-12.997 13.872 32.723 32.723 0 00-3.102 18.747 32.706 32.706 0 0023.976 27.332 32.75 32.75 0 0018.997-.627 32.77 32.77 0 0015.453-11.072 32.742 32.742 0 006.701-17.785 32.708 32.708 0 00-4.31-18.502 32.711 32.711 0 00-19.874-15.242 32.757 32.757 0 00-24.844 3.277zm42.311 28.495l-38.789 22.395-1.753-3.036 2.025-1.17-11.177-19.36 34.657-20.009 11.154 19.32 2.025-1.17 1.858 3.03zm-211.758 25.009a19.207 19.207 0 00-7.633 8.138 19.195 19.195 0 002.773 21.159 19.198 19.198 0 009.472 5.887 19.228 19.228 0 0024.147-17.309 19.196 19.196 0 00-28.759-17.875zm9.408 27.546l-9.348-16.192 18.721-.014-9.373 16.206z" fill="#fff"/></svg>