<svg width="33" height="34" viewBox="0 0 33 34" fill="none" xmlns="http://www.w3.org/2000/svg">
<path d="M16.1358 33.0039C24.4093 33.0039 31.225 26.779 32.1612 18.7577C31.9262 18.7957 31.6879 18.8164 31.4461 18.8164H17.984C17.4727 18.8164 16.9753 18.7163 16.5055 18.5159C16.0529 18.3259 15.6453 18.0495 15.2999 17.7041C14.951 17.3552 14.6781 16.951 14.4881 16.4985C14.2877 16.0287 14.1875 15.5312 14.1875 15.02V1.55443C14.1875 1.31262 14.2083 1.07426 14.2463 0.839355C6.22496 1.77897 1.23904e-10 8.59465 1.23904e-10 16.8681C-3.45446e-05 25.7807 7.22331 33.0039 16.1358 33.0039Z" fill="white"/>
<path d="M17.9839 16.0564H31.446C31.7361 16.0564 32.0056 15.977 32.237 15.8388C32.7414 15.5383 33.0592 14.9648 32.9901 14.3326C32.1956 6.79841 26.2055 0.808347 18.6713 0.0103634C18.616 0.00345447 18.5608 0 18.5055 0C17.9424 0 17.4415 0.303994 17.1686 0.763439C17.0304 0.994889 16.9509 1.26434 16.9509 1.55451V15.0166C16.9475 15.5901 17.4139 16.0564 17.9839 16.0564Z" fill="white"/>
</svg>
