<svg width="40" height="40" viewBox="0 0 40 40" fill="none" xmlns="http://www.w3.org/2000/svg">
<path d="M35.4927 15.9383C35.4927 7.14969 28.3427 0 19.5538 0C10.7652 0 3.61523 7.14969 3.61523 15.9383C3.61523 24.7265 10.7652 31.8762 19.5538 31.8762C28.3427 31.8762 35.4927 24.7265 35.4927 15.9383ZM16.7126 22.7371L11.271 17.2954L12.9204 15.6463L16.7126 19.4385L26.1875 9.96398L27.8369 11.6131L16.7126 22.7371Z" fill="white"/>
<path d="M4.82483 26.7339L0 33.771L7.13339 32.4407L8.46369 39.5743L12.9818 32.9847C9.7016 31.7157 6.87675 29.5261 4.82483 26.7339Z" fill="white"/>
<path d="M34.2831 26.7339C32.2312 29.5261 29.4064 31.7157 26.1262 32.9847L30.6443 39.5743L31.9746 32.4407L39.108 33.771L34.2831 26.7339Z" fill="white"/>
</svg>
