<svg width="52" height="31" viewBox="0 0 52 31" fill="none" xmlns="http://www.w3.org/2000/svg">
<path fill-rule="evenodd" clip-rule="evenodd" d="M37.0703 0.308529C41.5787 1.3624 43.3033 4.01807 45.4655 7.67327H37.0703V0.308529ZM10.7228 7.9802C11.6055 7.9802 12.2462 8.40942 12.2462 9.41254C12.2462 10.2586 11.5666 10.9448 10.7271 10.9472H1.52344C0.681976 10.9472 0 11.6346 0 12.4818C0 13.3295 0.681976 14.0165 1.52344 14.0165H15.2344C16.0838 14.0165 16.7638 14.7031 16.7638 15.5512C16.7638 16.3988 16.0818 17.0858 15.2403 17.0858H1.52344C0.681976 17.0858 0 17.7728 0 18.6205C0 19.4681 0.681976 20.1551 1.52344 20.1551H4.875V24.7591C4.875 25.6067 5.55698 26.2937 6.39844 26.2937H9.46078C10.0067 29.0026 12.3827 31 15.1836 31C17.9845 31 20.3605 29.0026 20.9064 26.2937H36.3748C36.9207 29.0026 39.2968 31 42.0977 31C44.8986 31 47.2746 29.0026 47.8205 26.2937H50.4766C51.318 26.2937 52 25.6067 52 24.7591V15.5512C52 11.0483 47.2853 10.7494 47.2809 10.7426H35.5469C34.7054 10.7426 34.0234 10.0556 34.0234 9.20792V0H6.39844C5.55698 0 4.875 0.686997 4.875 1.53465V4.91089H3.04688C2.20541 4.91089 1.52344 5.59789 1.52344 6.44554C1.52344 7.2932 2.20541 7.9802 3.04688 7.9802H10.7228ZM44.0726 23.1277C45.1632 24.2263 45.1632 26.0084 44.0726 27.107C42.3182 28.8743 39.3047 27.617 39.3047 25.1172C39.3047 22.6178 42.3182 21.3605 44.0726 23.1277ZM17.1585 23.1277C18.2491 24.2263 18.2491 26.0084 17.1585 27.107C15.4042 28.8743 12.3906 27.617 12.3906 25.1172C12.3906 22.6178 15.4042 21.3605 17.1585 23.1277Z" fill="white"/>
</svg>
