<svg width="223" height="152" fill="none" xmlns="http://www.w3.org/2000/svg"><path d="M63.853 144.391a76.002 76.002 0 01-4.579-134.367 76 76 0 1140.989 141.906l-.103-2.418a73.577 73.577 0 0070.181-67.587 73.577 73.577 0 00-58.422-77.977 73.58 73.58 0 00-47.01 138.265l-1.056 2.178z" fill="#441D06"/><path stroke="#441D06" stroke-width="2.5" d="M8 150.75h93m28 0h70"/><path fill-rule="evenodd" clip-rule="evenodd" d="M71.7 100.444c0-.413 0-.444.3-.444h49c.5 0 .5.031.5.444a1.555 1.555 0 01-1.556 1.556H73.256a1.556 1.556 0 01-1.556-1.556z" fill="#441D06"/><path fill-rule="evenodd" clip-rule="evenodd" d="M77 67v33h9.5V67H77zm-.631-2.35a1.557 1.557 0 00-1.556 1.556v34.238A1.557 1.557 0 0076.368 102h10.894a1.556 1.556 0 001.556-1.556V66.206a1.556 1.556 0 00-1.556-1.556H76.368z" fill="#441D06"/><path fill-rule="evenodd" clip-rule="evenodd" d="M86.5 39.75l24.9 9.337v21.788H109V50.5L89 43v56.91h13c0 .412.226-.214.518.078.292.292.688.456 1.101.456h7.781V102H86.5V39.75z" fill="#441D06"/><path d="M90.375 53.756h3.112v3.113h-3.112v-3.113zm6.225 0h3.113v3.113H96.6v-3.113zm6.225 0h3.113v3.113h-3.113v-3.113zm-12.45 6.225h3.112v3.113h-3.112V59.98zm6.225 0h3.113v3.113H96.6V59.98zm6.225 0h3.113v3.113h-3.113V59.98zm-12.45 6.225h3.112v3.113h-3.112v-3.113zm6.225 0h3.113v3.113H96.6v-3.113zm6.225 0h3.113v3.113h-3.113v-3.113zm-12.45 6.225h3.112v3.113h-3.112V72.43zm6.225 0h3.113v3.113H96.6V72.43zm-6.225 6.225h3.112v3.113h-3.112v-3.113zm6.225 0h3.113v3.113H96.6v-3.113zm-6.225 6.225h3.112v3.113h-3.112V84.88zm6.225 0h3.113v3.113H96.6V84.88zm-6.225 6.225h3.112v3.113h-3.112v-3.113zm6.225 0h3.113v3.113H96.6v-3.113z" fill="#441D06"/><path fill-rule="evenodd" clip-rule="evenodd" d="M104.112 73L104 100h12.657l-.045-27h-12.5zm-.674-2.125a1.558 1.558 0 00-1.557 1.556v28.013a1.556 1.556 0 001.557 1.556h14.006a1.555 1.555 0 001.556-1.556V72.431a1.556 1.556 0 00-1.556-1.556h-14.006z" fill="#441D06"/><path fill-rule="evenodd" clip-rule="evenodd" d="M112.163 80.213h-4.669V77.1h4.669v3.113zm0 6.224h-4.669v-3.112h4.669v3.112zm0 6.226h-4.669V89.55h4.669v3.113zm0 6.224h-4.669v-3.112h4.669v3.112zM82 53v14h-2V53h2z" fill="#441D06"/></svg>